<mxfile host="app.diagrams.net" agent="Mozilla/5.0 (Macintosh; Intel Mac OS X 10_15_7) AppleWebKit/537.36 (KHTML, like Gecko) Chrome/128.0.0.0 Safari/537.36" version="24.7.13" pages="2">
  <diagram name="Page-1" id="0783ab3e-0a74-02c8-0abd-f7b4e66b4bec">
    <mxGraphModel dx="1205" dy="851" grid="1" gridSize="10" guides="1" tooltips="1" connect="1" arrows="1" fold="1" page="1" pageScale="1" pageWidth="850" pageHeight="1100" background="none" math="0" shadow="0">
      <root>
        <mxCell id="0" />
        <mxCell id="1" parent="0" />
        <mxCell id="1c1d494c118603dd-1" value="&lt;font style=&quot;font-size: 29px;&quot;&gt;mtanh package&lt;/font&gt;" style="swimlane;html=1;childLayout=stackLayout;startSize=60;rounded=0;shadow=0;comic=0;labelBackgroundColor=none;strokeWidth=1;fontFamily=Times New Roman;fontSize=29;align=center;" parent="1" vertex="1">
          <mxGeometry x="70" y="60" width="1000" height="1070" as="geometry" />
        </mxCell>
        <mxCell id="1c1d494c118603dd-3" value="&lt;font style=&quot;font-size: 22px;&quot;&gt;First level&lt;/font&gt;" style="swimlane;html=1;startSize=40;fontFamily=Times New Roman;fontSize=22;" parent="1c1d494c118603dd-1" vertex="1">
          <mxGeometry y="60" width="290" height="1010" as="geometry" />
        </mxCell>
        <mxCell id="UKQ700S80o_2FQXmhF7d-37" value="initialization" style="edgeStyle=orthogonalEdgeStyle;rounded=0;orthogonalLoop=1;jettySize=auto;html=1;fontFamily=Times New Roman;" parent="1c1d494c118603dd-3" source="UKQ700S80o_2FQXmhF7d-15" edge="1">
          <mxGeometry relative="1" as="geometry">
            <mxPoint x="143" y="450" as="targetPoint" />
          </mxGeometry>
        </mxCell>
        <mxCell id="UKQ700S80o_2FQXmhF7d-15" value="&lt;font color=&quot;#131300&quot; style=&quot;forced-color-adjust: none; font-style: normal; font-variant-ligatures: normal; font-variant-caps: normal; font-weight: 400; letter-spacing: normal; orphans: 2; text-align: center; text-indent: 0px; text-transform: none; widows: 2; word-spacing: 0px; -webkit-text-stroke-width: 0px; white-space: normal; text-decoration-thickness: initial; text-decoration-style: initial; text-decoration-color: initial;&quot; size=&quot;1&quot;&gt;&lt;span style=&quot;forced-color-adjust: none; caret-color: rgb(19, 19, 0); text-wrap: nowrap;&quot;&gt;&lt;b style=&quot;forced-color-adjust: none; font-size: 16px;&quot;&gt;pedestal_ts_default&lt;/b&gt;&lt;/span&gt;&lt;/font&gt;" style="swimlane;fontStyle=0;childLayout=stackLayout;horizontal=1;startSize=30;horizontalStack=0;resizeParent=1;resizeParentMax=0;resizeLast=0;collapsible=1;marginBottom=0;whiteSpace=wrap;html=1;fillColor=#dae8fc;strokeColor=#6c8ebf;fontFamily=Times New Roman;" parent="1c1d494c118603dd-3" vertex="1">
          <mxGeometry x="42.5" y="70" width="200" height="140" as="geometry" />
        </mxCell>
        <mxCell id="UKQ700S80o_2FQXmhF7d-16" value="&lt;span style=&quot;caret-color: rgb(19, 19, 0); color: rgb(19, 19, 0); text-wrap: nowrap; background-color: rgb(255, 255, 255); font-size: 14px;&quot;&gt;&lt;font style=&quot;font-size: 14px;&quot;&gt;input : None&lt;/font&gt;&lt;/span&gt;" style="text;strokeColor=default;fillColor=none;align=left;verticalAlign=middle;spacingLeft=4;spacingRight=4;overflow=hidden;points=[[0,0.5],[1,0.5]];portConstraint=eastwest;rotatable=0;whiteSpace=wrap;html=1;fontFamily=Times New Roman;fontSize=14;" parent="UKQ700S80o_2FQXmhF7d-15" vertex="1">
          <mxGeometry y="30" width="200" height="30" as="geometry" />
        </mxCell>
        <mxCell id="UKQ700S80o_2FQXmhF7d-17" value="&lt;div style=&quot;font-size: 14px;&quot;&gt;output : the initial parameters&lt;/div&gt;&lt;div style=&quot;font-size: 14px;&quot;&gt;&lt;/div&gt;&lt;div style=&quot;font-size: 14px;&quot;&gt;&lt;/div&gt;" style="text;strokeColor=default;fillColor=none;align=left;verticalAlign=middle;spacingLeft=4;spacingRight=4;overflow=hidden;points=[[0,0.5],[1,0.5]];portConstraint=eastwest;rotatable=0;whiteSpace=wrap;html=1;fontFamily=Times New Roman;fontSize=14;" parent="UKQ700S80o_2FQXmhF7d-15" vertex="1">
          <mxGeometry y="60" width="200" height="30" as="geometry" />
        </mxCell>
        <mxCell id="UKQ700S80o_2FQXmhF7d-18" value="&lt;div style=&quot;font-size: 14px;&quot;&gt;function: set parameters for fitting&lt;/div&gt;" style="text;strokeColor=default;fillColor=none;align=left;verticalAlign=middle;spacingLeft=4;spacingRight=4;overflow=hidden;points=[[0,0.5],[1,0.5]];portConstraint=eastwest;rotatable=0;whiteSpace=wrap;html=1;fontFamily=Times New Roman;fontSize=14;" parent="UKQ700S80o_2FQXmhF7d-15" vertex="1">
          <mxGeometry y="90" width="200" height="50" as="geometry" />
        </mxCell>
        <mxCell id="UKQ700S80o_2FQXmhF7d-86" value="output can be loaded for" style="edgeStyle=orthogonalEdgeStyle;rounded=0;orthogonalLoop=1;jettySize=auto;html=1;fontFamily=Times New Roman;" parent="1c1d494c118603dd-3" source="UKQ700S80o_2FQXmhF7d-19" target="UKQ700S80o_2FQXmhF7d-82" edge="1">
          <mxGeometry relative="1" as="geometry" />
        </mxCell>
        <mxCell id="UKQ700S80o_2FQXmhF7d-19" value="&lt;font color=&quot;#131300&quot; style=&quot;forced-color-adjust: none; orphans: 2; text-align: center; text-indent: 0px; widows: 2; text-decoration-thickness: initial; text-decoration-style: initial; text-decoration-color: initial;&quot; size=&quot;1&quot;&gt;&lt;span style=&quot;forced-color-adjust: none;&quot;&gt;&lt;span style=&quot;forced-color-adjust: none;&quot;&gt;&lt;span style=&quot;text-wrap: nowrap;&quot;&gt;&lt;b style=&quot;font-size: 16px;&quot;&gt;pedestal_ts_fit&lt;/b&gt;&lt;/span&gt;&lt;/span&gt;&lt;/span&gt;&lt;/font&gt;" style="swimlane;fontStyle=0;childLayout=stackLayout;horizontal=1;startSize=30;horizontalStack=0;resizeParent=1;resizeParentMax=0;resizeLast=0;collapsible=1;marginBottom=0;whiteSpace=wrap;html=1;fillColor=#ffe6cc;strokeColor=#d79b00;fontFamily=Times New Roman;" parent="1c1d494c118603dd-3" vertex="1">
          <mxGeometry x="21.25" y="460" width="242.5" height="150" as="geometry" />
        </mxCell>
        <mxCell id="UKQ700S80o_2FQXmhF7d-20" value="&lt;span style=&quot;caret-color: rgb(19, 19, 0); color: rgb(19, 19, 0); text-wrap: nowrap; background-color: rgb(255, 255, 255); font-size: 14px;&quot;&gt;&lt;font style=&quot;font-size: 14px;&quot;&gt;input :&amp;nbsp;&lt;/font&gt;&lt;/span&gt;&lt;font style=&quot;font-size: 14px;&quot; color=&quot;#131300&quot;&gt;&lt;span style=&quot;caret-color: rgb(19, 19, 0); text-wrap: nowrap; font-size: 14px;&quot;&gt;shot, time window, parameters&lt;/span&gt;&lt;/font&gt;" style="text;strokeColor=default;fillColor=none;align=left;verticalAlign=middle;spacingLeft=4;spacingRight=4;overflow=hidden;points=[[0,0.5],[1,0.5]];portConstraint=eastwest;rotatable=0;whiteSpace=wrap;html=1;fontFamily=Times New Roman;fontSize=14;" parent="UKQ700S80o_2FQXmhF7d-19" vertex="1">
          <mxGeometry y="30" width="242.5" height="30" as="geometry" />
        </mxCell>
        <mxCell id="UKQ700S80o_2FQXmhF7d-21" value="&lt;div style=&quot;font-size: 14px;&quot;&gt;output :&amp;nbsp;&lt;span style=&quot;background-color: initial; font-size: 14px;&quot;&gt;T, Rho, P profiles after fitting&lt;/span&gt;&lt;/div&gt;&lt;div style=&quot;font-size: 14px;&quot;&gt;with fitting parameters&lt;/div&gt;&lt;div style=&quot;font-size: 14px;&quot;&gt;&lt;/div&gt;&lt;div style=&quot;font-size: 14px;&quot;&gt;&lt;/div&gt;" style="text;strokeColor=default;fillColor=none;align=left;verticalAlign=middle;spacingLeft=4;spacingRight=4;overflow=hidden;points=[[0,0.5],[1,0.5]];portConstraint=eastwest;rotatable=0;whiteSpace=wrap;html=1;fontFamily=Times New Roman;fontSize=14;" parent="UKQ700S80o_2FQXmhF7d-19" vertex="1">
          <mxGeometry y="60" width="242.5" height="50" as="geometry" />
        </mxCell>
        <mxCell id="UKQ700S80o_2FQXmhF7d-22" value="&lt;div style=&quot;font-size: 14px;&quot;&gt;function: main funtion（with extra fitting）&lt;/div&gt;" style="text;strokeColor=default;fillColor=none;align=left;verticalAlign=middle;spacingLeft=4;spacingRight=4;overflow=hidden;points=[[0,0.5],[1,0.5]];portConstraint=eastwest;rotatable=0;whiteSpace=wrap;html=1;fontFamily=Times New Roman;fontSize=14;" parent="UKQ700S80o_2FQXmhF7d-19" vertex="1">
          <mxGeometry y="110" width="242.5" height="40" as="geometry" />
        </mxCell>
        <mxCell id="UKQ700S80o_2FQXmhF7d-82" value="&lt;font color=&quot;#131300&quot; size=&quot;1&quot;&gt;&lt;span style=&quot;text-wrap: nowrap;&quot;&gt;&lt;b style=&quot;font-size: 16px;&quot;&gt;pedestal_ts_plot&lt;/b&gt;&lt;/span&gt;&lt;/font&gt;" style="swimlane;fontStyle=0;childLayout=stackLayout;horizontal=1;startSize=30;horizontalStack=0;resizeParent=1;resizeParentMax=0;resizeLast=0;collapsible=1;marginBottom=0;whiteSpace=wrap;html=1;fillColor=#d5e8d4;strokeColor=#82b366;fontFamily=Times New Roman;" parent="1c1d494c118603dd-3" vertex="1">
          <mxGeometry x="13.13" y="830" width="258.75" height="150" as="geometry" />
        </mxCell>
        <mxCell id="UKQ700S80o_2FQXmhF7d-83" value="&lt;div style=&quot;font-size: 14px;&quot;&gt;&lt;font style=&quot;font-size: 14px;&quot; color=&quot;#131300&quot;&gt;&lt;span style=&quot;caret-color: rgb(19, 19, 0); text-wrap: nowrap; font-size: 14px;&quot;&gt;input : the data from &quot;load expfit_xxx.mat&quot;&lt;/span&gt;&lt;/font&gt;&lt;/div&gt;" style="text;strokeColor=default;fillColor=none;align=left;verticalAlign=middle;spacingLeft=4;spacingRight=4;overflow=hidden;points=[[0,0.5],[1,0.5]];portConstraint=eastwest;rotatable=0;whiteSpace=wrap;html=1;fontFamily=Times New Roman;fontSize=14;" parent="UKQ700S80o_2FQXmhF7d-82" vertex="1">
          <mxGeometry y="30" width="258.75" height="40" as="geometry" />
        </mxCell>
        <mxCell id="UKQ700S80o_2FQXmhF7d-84" value="&lt;div style=&quot;font-size: 14px;&quot;&gt;&lt;div style=&quot;font-size: 14px;&quot;&gt;output : the fitting picture for tempreture and rho&lt;/div&gt;&lt;/div&gt;&lt;div style=&quot;font-size: 14px;&quot;&gt;&lt;/div&gt;&lt;div style=&quot;font-size: 14px;&quot;&gt;&lt;/div&gt;" style="text;strokeColor=default;fillColor=none;align=left;verticalAlign=middle;spacingLeft=4;spacingRight=4;overflow=hidden;points=[[0,0.5],[1,0.5]];portConstraint=eastwest;rotatable=0;whiteSpace=wrap;html=1;fontFamily=Times New Roman;fontSize=14;" parent="UKQ700S80o_2FQXmhF7d-82" vertex="1">
          <mxGeometry y="70" width="258.75" height="50" as="geometry" />
        </mxCell>
        <mxCell id="UKQ700S80o_2FQXmhF7d-85" value="&lt;div style=&quot;font-size: 14px;&quot;&gt;function: get the fitting picture&lt;/div&gt;" style="text;strokeColor=default;fillColor=none;align=left;verticalAlign=middle;spacingLeft=4;spacingRight=4;overflow=hidden;points=[[0,0.5],[1,0.5]];portConstraint=eastwest;rotatable=0;whiteSpace=wrap;html=1;fontFamily=Times New Roman;fontSize=14;" parent="UKQ700S80o_2FQXmhF7d-82" vertex="1">
          <mxGeometry y="120" width="258.75" height="30" as="geometry" />
        </mxCell>
        <mxCell id="UKQ700S80o_2FQXmhF7d-118" style="edgeStyle=orthogonalEdgeStyle;rounded=0;orthogonalLoop=1;jettySize=auto;html=1;exitX=1;exitY=0.5;exitDx=0;exitDy=0;" parent="UKQ700S80o_2FQXmhF7d-82" source="UKQ700S80o_2FQXmhF7d-85" target="UKQ700S80o_2FQXmhF7d-85" edge="1">
          <mxGeometry relative="1" as="geometry" />
        </mxCell>
        <mxCell id="UKQ700S80o_2FQXmhF7d-11" value="&lt;font style=&quot;font-size: 22px;&quot;&gt;Second level&lt;/font&gt;" style="swimlane;html=1;startSize=40;fontFamily=Times New Roman;fontSize=22;" parent="1c1d494c118603dd-1" vertex="1">
          <mxGeometry x="290" y="60" width="320" height="1010" as="geometry" />
        </mxCell>
        <mxCell id="UKQ700S80o_2FQXmhF7d-51" value="&lt;font color=&quot;#131300&quot; size=&quot;1&quot;&gt;&lt;span style=&quot;text-wrap: nowrap;&quot;&gt;&lt;b style=&quot;font-size: 16px;&quot;&gt;pedestal_ts_mtanhfit&lt;/b&gt;&lt;/span&gt;&lt;/font&gt;" style="swimlane;fontStyle=0;childLayout=stackLayout;horizontal=1;startSize=30;horizontalStack=0;resizeParent=1;resizeParentMax=0;resizeLast=0;collapsible=1;marginBottom=0;whiteSpace=wrap;html=1;fillColor=#ffe6cc;strokeColor=#d79b00;fontFamily=Times New Roman;" parent="UKQ700S80o_2FQXmhF7d-11" vertex="1">
          <mxGeometry x="23.44" y="440" width="273.12" height="180" as="geometry" />
        </mxCell>
        <mxCell id="UKQ700S80o_2FQXmhF7d-52" value="&lt;div&gt;&lt;font size=&quot;1&quot; color=&quot;#131300&quot;&gt;&lt;span style=&quot;caret-color: rgb(19, 19, 0); text-wrap: nowrap; font-size: 14px;&quot;&gt;input : shot, time window, elmcycle，&lt;/span&gt;&lt;/font&gt;&lt;/div&gt;&lt;div&gt;&lt;font size=&quot;1&quot; color=&quot;#131300&quot;&gt;&lt;span style=&quot;caret-color: rgb(19, 19, 0); text-wrap: nowrap; font-size: 14px;&quot;&gt;parameter&lt;/span&gt;&lt;/font&gt;&lt;/div&gt;" style="text;strokeColor=default;fillColor=none;align=left;verticalAlign=middle;spacingLeft=4;spacingRight=4;overflow=hidden;points=[[0,0.5],[1,0.5]];portConstraint=eastwest;rotatable=0;whiteSpace=wrap;html=1;fontFamily=Times New Roman;" parent="UKQ700S80o_2FQXmhF7d-51" vertex="1">
          <mxGeometry y="30" width="273.12" height="50" as="geometry" />
        </mxCell>
        <mxCell id="UKQ700S80o_2FQXmhF7d-53" value="&lt;div&gt;&lt;div&gt;&lt;font style=&quot;font-size: 14px;&quot;&gt;output : data after fitting and fitting pictures&lt;/font&gt;&lt;/div&gt;&lt;/div&gt;&lt;div&gt;&lt;/div&gt;&lt;div&gt;&lt;/div&gt;" style="text;strokeColor=default;fillColor=none;align=left;verticalAlign=middle;spacingLeft=4;spacingRight=4;overflow=hidden;points=[[0,0.5],[1,0.5]];portConstraint=eastwest;rotatable=0;whiteSpace=wrap;html=1;fontFamily=Times New Roman;" parent="UKQ700S80o_2FQXmhF7d-51" vertex="1">
          <mxGeometry y="80" width="273.12" height="50" as="geometry" />
        </mxCell>
        <mxCell id="UKQ700S80o_2FQXmhF7d-54" value="&lt;div&gt;&lt;font style=&quot;font-size: 14px;&quot;&gt;function: Filter the data and perform mtanh fitting&lt;/font&gt;&lt;/div&gt;" style="text;strokeColor=default;fillColor=none;align=left;verticalAlign=middle;spacingLeft=4;spacingRight=4;overflow=hidden;points=[[0,0.5],[1,0.5]];portConstraint=eastwest;rotatable=0;whiteSpace=wrap;html=1;fontFamily=Times New Roman;" parent="UKQ700S80o_2FQXmhF7d-51" vertex="1">
          <mxGeometry y="130" width="273.12" height="50" as="geometry" />
        </mxCell>
        <mxCell id="UKQ700S80o_2FQXmhF7d-87" value="call" style="edgeStyle=orthogonalEdgeStyle;rounded=0;orthogonalLoop=1;jettySize=auto;html=1;exitX=1;exitY=0.5;exitDx=0;exitDy=0;entryX=0;entryY=0.5;entryDx=0;entryDy=0;fillColor=#f8cecc;strokeColor=#FF3333;strokeWidth=2;fontSize=12;fontStyle=1;fontFamily=Times New Roman;" parent="1c1d494c118603dd-1" source="UKQ700S80o_2FQXmhF7d-21" target="UKQ700S80o_2FQXmhF7d-53" edge="1">
          <mxGeometry relative="1" as="geometry" />
        </mxCell>
        <mxCell id="UKQ700S80o_2FQXmhF7d-12" value="&lt;font style=&quot;font-size: 22px;&quot;&gt;Third level&lt;/font&gt;" style="swimlane;html=1;startSize=40;fontFamily=Times New Roman;fontSize=22;" parent="1c1d494c118603dd-1" vertex="1">
          <mxGeometry x="610" y="60" width="390" height="1010" as="geometry" />
        </mxCell>
        <mxCell id="UKQ700S80o_2FQXmhF7d-97" value="&lt;font color=&quot;#131300&quot; size=&quot;1&quot;&gt;&lt;span style=&quot;text-wrap: nowrap;&quot;&gt;&lt;b style=&quot;font-size: 16px;&quot;&gt;Elmyfreq&lt;/b&gt;&lt;/span&gt;&lt;/font&gt;" style="swimlane;fontStyle=0;childLayout=stackLayout;horizontal=1;startSize=30;horizontalStack=0;resizeParent=1;resizeParentMax=0;resizeLast=0;collapsible=1;marginBottom=0;whiteSpace=wrap;html=1;fillColor=#ffe6cc;strokeColor=#d79b00;fontFamily=Times New Roman;" parent="UKQ700S80o_2FQXmhF7d-12" vertex="1">
          <mxGeometry x="73.44" y="170" width="286.56" height="140" as="geometry" />
        </mxCell>
        <mxCell id="UKQ700S80o_2FQXmhF7d-98" value="&lt;div style=&quot;font-size: 14px;&quot;&gt;&lt;font style=&quot;font-size: 14px;&quot; color=&quot;#131300&quot;&gt;&lt;span style=&quot;caret-color: rgb(19, 19, 0); text-wrap: nowrap; font-size: 14px;&quot;&gt;input : shot, time window,plot or not, level,tlag&lt;/span&gt;&lt;/font&gt;&lt;/div&gt;" style="text;strokeColor=default;fillColor=none;align=left;verticalAlign=middle;spacingLeft=4;spacingRight=4;overflow=hidden;points=[[0,0.5],[1,0.5]];portConstraint=eastwest;rotatable=0;whiteSpace=wrap;html=1;fontFamily=Times New Roman;fontSize=14;" parent="UKQ700S80o_2FQXmhF7d-97" vertex="1">
          <mxGeometry y="30" width="286.56" height="30" as="geometry" />
        </mxCell>
        <mxCell id="UKQ700S80o_2FQXmhF7d-99" value="&lt;div&gt;&lt;div&gt;&lt;font style=&quot;font-size: 14px;&quot;&gt;output : Elm information&lt;/font&gt;&lt;/div&gt;&lt;/div&gt;&lt;div&gt;&lt;/div&gt;&lt;div&gt;&lt;/div&gt;" style="text;strokeColor=default;fillColor=none;align=left;verticalAlign=middle;spacingLeft=4;spacingRight=4;overflow=hidden;points=[[0,0.5],[1,0.5]];portConstraint=eastwest;rotatable=0;whiteSpace=wrap;html=1;fontFamily=Times New Roman;" parent="UKQ700S80o_2FQXmhF7d-97" vertex="1">
          <mxGeometry y="60" width="286.56" height="50" as="geometry" />
        </mxCell>
        <mxCell id="UKQ700S80o_2FQXmhF7d-100" value="&lt;div&gt;&lt;font style=&quot;font-size: 14px;&quot;&gt;function: gets ELM times and frequencies&lt;/font&gt;&lt;/div&gt;" style="text;strokeColor=default;fillColor=none;align=left;verticalAlign=middle;spacingLeft=4;spacingRight=4;overflow=hidden;points=[[0,0.5],[1,0.5]];portConstraint=eastwest;rotatable=0;whiteSpace=wrap;html=1;fontFamily=Times New Roman;" parent="UKQ700S80o_2FQXmhF7d-97" vertex="1">
          <mxGeometry y="110" width="286.56" height="30" as="geometry" />
        </mxCell>
        <mxCell id="UKQ700S80o_2FQXmhF7d-105" value="&lt;div&gt;&lt;font color=&quot;#131300&quot; size=&quot;1&quot;&gt;&lt;span style=&quot;text-wrap: nowrap;&quot;&gt;&lt;b style=&quot;font-size: 16px;&quot;&gt;mtanh_ped&lt;/b&gt;&lt;/span&gt;&lt;/font&gt;&lt;/div&gt;" style="swimlane;fontStyle=0;childLayout=stackLayout;horizontal=1;startSize=30;horizontalStack=0;resizeParent=1;resizeParentMax=0;resizeLast=0;collapsible=1;marginBottom=0;whiteSpace=wrap;html=1;fillColor=#ffe6cc;strokeColor=#d79b00;fontFamily=Times New Roman;" parent="UKQ700S80o_2FQXmhF7d-12" vertex="1">
          <mxGeometry x="73.44" y="730" width="286.56" height="180" as="geometry" />
        </mxCell>
        <mxCell id="UKQ700S80o_2FQXmhF7d-106" value="&lt;div style=&quot;font-size: 14px;&quot;&gt;&lt;font style=&quot;font-size: 14px;&quot; color=&quot;#131300&quot;&gt;&lt;span style=&quot;caret-color: rgb(19, 19, 0); text-wrap: nowrap; font-size: 14px;&quot;&gt;input : [5 tanh fitting parameters],&lt;/span&gt;&lt;/font&gt;&lt;/div&gt;&lt;div style=&quot;font-size: 14px;&quot;&gt;&lt;font style=&quot;font-size: 14px;&quot; color=&quot;#131300&quot;&gt;&lt;span style=&quot;caret-color: rgb(19, 19, 0); text-wrap: nowrap; font-size: 14px;&quot;&gt;s (sqrt(psi_norm))&lt;/span&gt;&lt;/font&gt;&lt;/div&gt;" style="text;strokeColor=default;fillColor=none;align=left;verticalAlign=middle;spacingLeft=4;spacingRight=4;overflow=hidden;points=[[0,0.5],[1,0.5]];portConstraint=eastwest;rotatable=0;whiteSpace=wrap;html=1;fontFamily=Times New Roman;fontSize=14;" parent="UKQ700S80o_2FQXmhF7d-105" vertex="1">
          <mxGeometry y="30" width="286.56" height="50" as="geometry" />
        </mxCell>
        <mxCell id="UKQ700S80o_2FQXmhF7d-107" value="&lt;div style=&quot;font-size: 14px;&quot;&gt;&lt;div style=&quot;font-size: 14px;&quot;&gt;output : fitting function, Jacobian, 1st &amp;amp;2nd derivative&lt;/div&gt;&lt;/div&gt;&lt;div style=&quot;font-size: 14px;&quot;&gt;&lt;/div&gt;&lt;div style=&quot;font-size: 14px;&quot;&gt;&lt;/div&gt;" style="text;strokeColor=default;fillColor=none;align=left;verticalAlign=middle;spacingLeft=4;spacingRight=4;overflow=hidden;points=[[0,0.5],[1,0.5]];portConstraint=eastwest;rotatable=0;whiteSpace=wrap;html=1;fontFamily=Times New Roman;fontSize=14;" parent="UKQ700S80o_2FQXmhF7d-105" vertex="1">
          <mxGeometry y="80" width="286.56" height="50" as="geometry" />
        </mxCell>
        <mxCell id="UKQ700S80o_2FQXmhF7d-108" value="&lt;div style=&quot;font-size: 14px;&quot;&gt;function: modified tanh function used for pedestal fits&lt;/div&gt;" style="text;strokeColor=default;fillColor=none;align=left;verticalAlign=middle;spacingLeft=4;spacingRight=4;overflow=hidden;points=[[0,0.5],[1,0.5]];portConstraint=eastwest;rotatable=0;whiteSpace=wrap;html=1;fontFamily=Times New Roman;fontSize=14;" parent="UKQ700S80o_2FQXmhF7d-105" vertex="1">
          <mxGeometry y="130" width="286.56" height="50" as="geometry" />
        </mxCell>
        <mxCell id="UKQ700S80o_2FQXmhF7d-109" value="&lt;div&gt;&lt;font color=&quot;#131300&quot; size=&quot;1&quot;&gt;&lt;span style=&quot;text-wrap: nowrap;&quot;&gt;&lt;b style=&quot;font-size: 16px;&quot;&gt;detectOutliers&lt;/b&gt;&lt;/span&gt;&lt;/font&gt;&lt;/div&gt;" style="swimlane;fontStyle=0;childLayout=stackLayout;horizontal=1;startSize=30;horizontalStack=0;resizeParent=1;resizeParentMax=0;resizeLast=0;collapsible=1;marginBottom=0;whiteSpace=wrap;html=1;fillColor=#ffe6cc;strokeColor=#d79b00;fontFamily=Times New Roman;" parent="UKQ700S80o_2FQXmhF7d-12" vertex="1">
          <mxGeometry x="73.44" y="550" width="286.56" height="140" as="geometry" />
        </mxCell>
        <mxCell id="UKQ700S80o_2FQXmhF7d-111" value="&lt;div style=&quot;font-size: 14px;&quot;&gt;&lt;div style=&quot;font-size: 14px;&quot;&gt;input : s (sqrt(psi_norm)) : ,tempreture&lt;/div&gt;&lt;/div&gt;&lt;div style=&quot;font-size: 14px;&quot;&gt;&lt;/div&gt;&lt;div style=&quot;font-size: 14px;&quot;&gt;&lt;/div&gt;" style="text;strokeColor=default;fillColor=none;align=left;verticalAlign=middle;spacingLeft=4;spacingRight=4;overflow=hidden;points=[[0,0.5],[1,0.5]];portConstraint=eastwest;rotatable=0;whiteSpace=wrap;html=1;fontFamily=Times New Roman;fontSize=14;" parent="UKQ700S80o_2FQXmhF7d-109" vertex="1">
          <mxGeometry y="30" width="286.56" height="50" as="geometry" />
        </mxCell>
        <mxCell id="UKQ700S80o_2FQXmhF7d-110" value="&lt;div style=&quot;font-size: 14px;&quot;&gt;&lt;font style=&quot;font-size: 14px;&quot; color=&quot;#131300&quot;&gt;&lt;span style=&quot;caret-color: rgb(19, 19, 0); text-wrap: nowrap; font-size: 14px;&quot;&gt;output : the indices for the outliers&lt;/span&gt;&lt;/font&gt;&lt;/div&gt;" style="text;strokeColor=default;fillColor=none;align=left;verticalAlign=middle;spacingLeft=4;spacingRight=4;overflow=hidden;points=[[0,0.5],[1,0.5]];portConstraint=eastwest;rotatable=0;whiteSpace=wrap;html=1;fontFamily=Times New Roman;fontSize=14;" parent="UKQ700S80o_2FQXmhF7d-109" vertex="1">
          <mxGeometry y="80" width="286.56" height="30" as="geometry" />
        </mxCell>
        <mxCell id="UKQ700S80o_2FQXmhF7d-112" value="&lt;div style=&quot;font-size: 14px;&quot;&gt;function: identify outliers to delete them later&lt;/div&gt;" style="text;strokeColor=default;fillColor=none;align=left;verticalAlign=middle;spacingLeft=4;spacingRight=4;overflow=hidden;points=[[0,0.5],[1,0.5]];portConstraint=eastwest;rotatable=0;whiteSpace=wrap;html=1;fontFamily=Times New Roman;fontSize=14;" parent="UKQ700S80o_2FQXmhF7d-109" vertex="1">
          <mxGeometry y="110" width="286.56" height="30" as="geometry" />
        </mxCell>
        <mxCell id="UKQ700S80o_2FQXmhF7d-101" value="&lt;div&gt;&lt;font color=&quot;#131300&quot; size=&quot;1&quot;&gt;&lt;span style=&quot;text-wrap: nowrap;&quot;&gt;&lt;b style=&quot;font-size: 16px;&quot;&gt;dW_ELM_DML&lt;/b&gt;&lt;/span&gt;&lt;/font&gt;&lt;/div&gt;" style="swimlane;fontStyle=0;childLayout=stackLayout;horizontal=1;startSize=30;horizontalStack=0;resizeParent=1;resizeParentMax=0;resizeLast=0;collapsible=1;marginBottom=0;whiteSpace=wrap;html=1;fillColor=#ffe6cc;strokeColor=#d79b00;fontFamily=Times New Roman;" parent="UKQ700S80o_2FQXmhF7d-12" vertex="1">
          <mxGeometry x="73.44" y="360" width="286.56" height="140" as="geometry" />
        </mxCell>
        <mxCell id="UKQ700S80o_2FQXmhF7d-102" value="&lt;div&gt;&lt;font size=&quot;1&quot; color=&quot;#131300&quot;&gt;&lt;span style=&quot;caret-color: rgb(19, 19, 0); text-wrap: nowrap; font-size: 14px;&quot;&gt;input : shot,time window,plot or not&lt;/span&gt;&lt;/font&gt;&lt;/div&gt;" style="text;strokeColor=default;fillColor=none;align=left;verticalAlign=middle;spacingLeft=4;spacingRight=4;overflow=hidden;points=[[0,0.5],[1,0.5]];portConstraint=eastwest;rotatable=0;whiteSpace=wrap;html=1;fontFamily=Times New Roman;" parent="UKQ700S80o_2FQXmhF7d-101" vertex="1">
          <mxGeometry y="30" width="286.56" height="30" as="geometry" />
        </mxCell>
        <mxCell id="UKQ700S80o_2FQXmhF7d-103" value="&lt;div&gt;&lt;div&gt;&lt;font style=&quot;font-size: 14px;&quot;&gt;output : change and value of plasma energy&lt;/font&gt;&lt;/div&gt;&lt;/div&gt;&lt;div&gt;&lt;/div&gt;&lt;div&gt;&lt;/div&gt;" style="text;strokeColor=default;fillColor=none;align=left;verticalAlign=middle;spacingLeft=4;spacingRight=4;overflow=hidden;points=[[0,0.5],[1,0.5]];portConstraint=eastwest;rotatable=0;whiteSpace=wrap;html=1;fontFamily=Times New Roman;" parent="UKQ700S80o_2FQXmhF7d-101" vertex="1">
          <mxGeometry y="60" width="286.56" height="50" as="geometry" />
        </mxCell>
        <mxCell id="UKQ700S80o_2FQXmhF7d-104" value="&lt;div&gt;&lt;font style=&quot;font-size: 14px;&quot;&gt;function: get energy loss due to ELMs&lt;/font&gt;&lt;/div&gt;" style="text;strokeColor=default;fillColor=none;align=left;verticalAlign=middle;spacingLeft=4;spacingRight=4;overflow=hidden;points=[[0,0.5],[1,0.5]];portConstraint=eastwest;rotatable=0;whiteSpace=wrap;html=1;fontFamily=Times New Roman;" parent="UKQ700S80o_2FQXmhF7d-101" vertex="1">
          <mxGeometry y="110" width="286.56" height="30" as="geometry" />
        </mxCell>
        <mxCell id="UKQ700S80o_2FQXmhF7d-113" value="call" style="edgeStyle=orthogonalEdgeStyle;rounded=0;orthogonalLoop=1;jettySize=auto;html=1;exitX=1;exitY=0.5;exitDx=0;exitDy=0;entryX=0;entryY=0.5;entryDx=0;entryDy=0;strokeColor=#FF3333;strokeWidth=2;fontSize=12;fontStyle=1;fontFamily=Times New Roman;" parent="1c1d494c118603dd-1" source="UKQ700S80o_2FQXmhF7d-53" target="UKQ700S80o_2FQXmhF7d-99" edge="1">
          <mxGeometry relative="1" as="geometry" />
        </mxCell>
        <mxCell id="UKQ700S80o_2FQXmhF7d-114" value="call" style="edgeStyle=orthogonalEdgeStyle;rounded=0;orthogonalLoop=1;jettySize=auto;html=1;exitX=1;exitY=0.5;exitDx=0;exitDy=0;entryX=0;entryY=0.5;entryDx=0;entryDy=0;strokeColor=#FF3333;strokeWidth=2;fontSize=12;fontStyle=1;fontFamily=Times New Roman;" parent="1c1d494c118603dd-1" source="UKQ700S80o_2FQXmhF7d-53" target="UKQ700S80o_2FQXmhF7d-103" edge="1">
          <mxGeometry relative="1" as="geometry" />
        </mxCell>
        <mxCell id="UKQ700S80o_2FQXmhF7d-116" value="call" style="edgeStyle=orthogonalEdgeStyle;rounded=0;orthogonalLoop=1;jettySize=auto;html=1;exitX=1;exitY=0.5;exitDx=0;exitDy=0;entryX=0;entryY=0.5;entryDx=0;entryDy=0;strokeColor=#FF3333;strokeWidth=2;fontSize=12;fontStyle=1;fontFamily=Times New Roman;" parent="1c1d494c118603dd-1" source="UKQ700S80o_2FQXmhF7d-53" target="UKQ700S80o_2FQXmhF7d-107" edge="1">
          <mxGeometry relative="1" as="geometry" />
        </mxCell>
        <mxCell id="UKQ700S80o_2FQXmhF7d-115" value="call" style="edgeStyle=orthogonalEdgeStyle;rounded=0;orthogonalLoop=1;jettySize=auto;html=1;exitX=1;exitY=0.5;exitDx=0;exitDy=0;entryX=0;entryY=0.5;entryDx=0;entryDy=0;strokeColor=#FF3333;strokeWidth=2;fontSize=12;fontStyle=1;fontFamily=Times New Roman;" parent="1c1d494c118603dd-1" source="UKQ700S80o_2FQXmhF7d-53" target="UKQ700S80o_2FQXmhF7d-111" edge="1">
          <mxGeometry relative="1" as="geometry" />
        </mxCell>
      </root>
    </mxGraphModel>
  </diagram>
  <diagram id="ZKAaN59LLz6bm7qVMKYW" name="第 2 页">
    <mxGraphModel dx="2237" dy="1580" grid="1" gridSize="10" guides="1" tooltips="1" connect="1" arrows="1" fold="1" page="1" pageScale="1" pageWidth="827" pageHeight="1169" math="0" shadow="0">
      <root>
        <mxCell id="0" />
        <mxCell id="1" parent="0" />
        <mxCell id="EfcbHoqVgBAvjW8AKtv0-1" value="&lt;font style=&quot;font-size: 29px;&quot;&gt;CAXE-BALM package&lt;/font&gt;" style="swimlane;html=1;childLayout=stackLayout;startSize=60;rounded=0;shadow=0;comic=0;labelBackgroundColor=none;strokeWidth=1;fontFamily=Times New Roman;fontSize=29;align=center;" vertex="1" parent="1">
          <mxGeometry x="70" y="70" width="1500" height="1420" as="geometry" />
        </mxCell>
        <mxCell id="EfcbHoqVgBAvjW8AKtv0-2" value="&lt;font style=&quot;font-size: 22px;&quot;&gt;First level&lt;/font&gt;" style="swimlane;html=1;startSize=40;fontFamily=Times New Roman;fontSize=22;" vertex="1" parent="EfcbHoqVgBAvjW8AKtv0-1">
          <mxGeometry y="60" width="270" height="1360" as="geometry" />
        </mxCell>
        <mxCell id="EfcbHoqVgBAvjW8AKtv0-9" value="&lt;font color=&quot;#131300&quot;&gt;&lt;span style=&quot;font-size: 16px; text-wrap: nowrap;&quot;&gt;&lt;b&gt;pedestal_ballooning&lt;/b&gt;&lt;/span&gt;&lt;/font&gt;" style="swimlane;fontStyle=0;childLayout=stackLayout;horizontal=1;startSize=30;horizontalStack=0;resizeParent=1;resizeParentMax=0;resizeLast=0;collapsible=1;marginBottom=0;whiteSpace=wrap;html=1;fillColor=#d5e8d4;strokeColor=#82b366;fontFamily=Times New Roman;" vertex="1" parent="EfcbHoqVgBAvjW8AKtv0-2">
          <mxGeometry x="16" y="60" width="242.5" height="150" as="geometry" />
        </mxCell>
        <mxCell id="EfcbHoqVgBAvjW8AKtv0-10" value="&lt;span style=&quot;caret-color: rgb(19, 19, 0); color: rgb(19, 19, 0); text-wrap: nowrap; background-color: rgb(255, 255, 255); font-size: 14px;&quot;&gt;&lt;font style=&quot;font-size: 14px;&quot;&gt;input :&amp;nbsp;&lt;/font&gt;&lt;/span&gt;&lt;font color=&quot;#131300&quot;&gt;&lt;span style=&quot;caret-color: rgb(19, 19, 0); text-wrap: nowrap;&quot;&gt;expeq&lt;/span&gt;&lt;/font&gt;" style="text;strokeColor=default;fillColor=none;align=left;verticalAlign=middle;spacingLeft=4;spacingRight=4;overflow=hidden;points=[[0,0.5],[1,0.5]];portConstraint=eastwest;rotatable=0;whiteSpace=wrap;html=1;fontFamily=Times New Roman;fontSize=14;" vertex="1" parent="EfcbHoqVgBAvjW8AKtv0-9">
          <mxGeometry y="30" width="242.5" height="30" as="geometry" />
        </mxCell>
        <mxCell id="EfcbHoqVgBAvjW8AKtv0-11" value="&lt;div style=&quot;font-size: 14px;&quot;&gt;output : None (but save the equilibrium and stability result in files)&lt;/div&gt;&lt;div style=&quot;font-size: 14px;&quot;&gt;&lt;/div&gt;&lt;div style=&quot;font-size: 14px;&quot;&gt;&lt;/div&gt;" style="text;strokeColor=default;fillColor=none;align=left;verticalAlign=middle;spacingLeft=4;spacingRight=4;overflow=hidden;points=[[0,0.5],[1,0.5]];portConstraint=eastwest;rotatable=0;whiteSpace=wrap;html=1;fontFamily=Times New Roman;fontSize=14;" vertex="1" parent="EfcbHoqVgBAvjW8AKtv0-9">
          <mxGeometry y="60" width="242.5" height="50" as="geometry" />
        </mxCell>
        <mxCell id="EfcbHoqVgBAvjW8AKtv0-12" value="&lt;div style=&quot;font-size: 14px;&quot;&gt;function: Computation of main functions for fast infinite balloon modes&lt;/div&gt;" style="text;strokeColor=default;fillColor=none;align=left;verticalAlign=middle;spacingLeft=4;spacingRight=4;overflow=hidden;points=[[0,0.5],[1,0.5]];portConstraint=eastwest;rotatable=0;whiteSpace=wrap;html=1;fontFamily=Times New Roman;fontSize=14;" vertex="1" parent="EfcbHoqVgBAvjW8AKtv0-9">
          <mxGeometry y="110" width="242.5" height="40" as="geometry" />
        </mxCell>
        <mxCell id="EfcbHoqVgBAvjW8AKtv0-18" value="&lt;font style=&quot;font-size: 22px;&quot;&gt;Second level&lt;/font&gt;" style="swimlane;html=1;startSize=40;fontFamily=Times New Roman;fontSize=22;" vertex="1" parent="EfcbHoqVgBAvjW8AKtv0-1">
          <mxGeometry x="270" y="60" width="350" height="1360" as="geometry" />
        </mxCell>
        <mxCell id="EfcbHoqVgBAvjW8AKtv0-19" value="&lt;font color=&quot;#131300&quot;&gt;&lt;span style=&quot;font-size: 16px; text-wrap: nowrap;&quot;&gt;&lt;b&gt;expeq2caxe_edge&lt;/b&gt;&lt;/span&gt;&lt;/font&gt;" style="swimlane;fontStyle=0;childLayout=stackLayout;horizontal=1;startSize=30;horizontalStack=0;resizeParent=1;resizeParentMax=0;resizeLast=0;collapsible=1;marginBottom=0;whiteSpace=wrap;html=1;fillColor=#e1d5e7;strokeColor=#9673a6;fontFamily=Times New Roman;" vertex="1" parent="EfcbHoqVgBAvjW8AKtv0-18">
          <mxGeometry x="60" y="60" width="273.12" height="180" as="geometry" />
        </mxCell>
        <mxCell id="EfcbHoqVgBAvjW8AKtv0-20" value="&lt;font color=&quot;#131300&quot;&gt;&lt;span style=&quot;font-size: 14px; text-wrap: nowrap;&quot;&gt;input : eqname&lt;/span&gt;&lt;br&gt;&lt;/font&gt;" style="text;strokeColor=default;fillColor=none;align=left;verticalAlign=middle;spacingLeft=4;spacingRight=4;overflow=hidden;points=[[0,0.5],[1,0.5]];portConstraint=eastwest;rotatable=0;whiteSpace=wrap;html=1;fontFamily=Times New Roman;" vertex="1" parent="EfcbHoqVgBAvjW8AKtv0-19">
          <mxGeometry y="30" width="273.12" height="50" as="geometry" />
        </mxCell>
        <mxCell id="EfcbHoqVgBAvjW8AKtv0-21" value="&lt;div&gt;&lt;div&gt;&lt;font style=&quot;font-size: 14px;&quot;&gt;output : CAXE_edge&lt;/font&gt;&lt;/div&gt;&lt;/div&gt;&lt;div&gt;&lt;/div&gt;&lt;div&gt;&lt;/div&gt;" style="text;strokeColor=default;fillColor=none;align=left;verticalAlign=middle;spacingLeft=4;spacingRight=4;overflow=hidden;points=[[0,0.5],[1,0.5]];portConstraint=eastwest;rotatable=0;whiteSpace=wrap;html=1;fontFamily=Times New Roman;" vertex="1" parent="EfcbHoqVgBAvjW8AKtv0-19">
          <mxGeometry y="80" width="273.12" height="50" as="geometry" />
        </mxCell>
        <mxCell id="EfcbHoqVgBAvjW8AKtv0-22" value="&lt;div&gt;&lt;font style=&quot;font-size: 14px;&quot;&gt;function: &amp;nbsp;Compute high resolution equilibrium with CAXE from EXPEQ file&lt;/font&gt;&lt;/div&gt;" style="text;strokeColor=default;fillColor=none;align=left;verticalAlign=middle;spacingLeft=4;spacingRight=4;overflow=hidden;points=[[0,0.5],[1,0.5]];portConstraint=eastwest;rotatable=0;whiteSpace=wrap;html=1;fontFamily=Times New Roman;" vertex="1" parent="EfcbHoqVgBAvjW8AKtv0-19">
          <mxGeometry y="130" width="273.12" height="50" as="geometry" />
        </mxCell>
        <mxCell id="EfcbHoqVgBAvjW8AKtv0-53" value="&lt;font color=&quot;#131300&quot;&gt;&lt;span style=&quot;font-size: 16px; text-wrap: nowrap;&quot;&gt;&lt;b&gt;eq2balm4_gen&lt;/b&gt;&lt;/span&gt;&lt;/font&gt;" style="swimlane;fontStyle=0;childLayout=stackLayout;horizontal=1;startSize=30;horizontalStack=0;resizeParent=1;resizeParentMax=0;resizeLast=0;collapsible=1;marginBottom=0;whiteSpace=wrap;html=1;fillColor=#e1d5e7;strokeColor=#9673a6;fontFamily=Times New Roman;" vertex="1" parent="EfcbHoqVgBAvjW8AKtv0-18">
          <mxGeometry x="60" y="925" width="273.12" height="190" as="geometry" />
        </mxCell>
        <mxCell id="EfcbHoqVgBAvjW8AKtv0-54" value="&lt;div&gt;&lt;font size=&quot;1&quot; color=&quot;#131300&quot;&gt;&lt;span style=&quot;caret-color: rgb(19, 19, 0); text-wrap: nowrap; font-size: 14px;&quot;&gt;input :&amp;nbsp;&lt;/span&gt;&lt;/font&gt;&lt;span style=&quot;background-color: initial; font-size: 14px; caret-color: rgb(19, 19, 0); text-wrap: nowrap;&quot;&gt;&lt;font color=&quot;#131300&quot;&gt;eqname,smax,sped,s0,w,jblist,pplist,&lt;/font&gt;&lt;/span&gt;&lt;/div&gt;&lt;div&gt;&lt;span style=&quot;background-color: initial; font-size: 14px; caret-color: rgb(19, 19, 0); text-wrap: nowrap;&quot;&gt;&lt;font color=&quot;#131300&quot;&gt;batch&lt;/font&gt;&lt;/span&gt;&lt;/div&gt;" style="text;strokeColor=default;fillColor=none;align=left;verticalAlign=middle;spacingLeft=4;spacingRight=4;overflow=hidden;points=[[0,0.5],[1,0.5]];portConstraint=eastwest;rotatable=0;whiteSpace=wrap;html=1;fontFamily=Times New Roman;" vertex="1" parent="EfcbHoqVgBAvjW8AKtv0-53">
          <mxGeometry y="30" width="273.12" height="60" as="geometry" />
        </mxCell>
        <mxCell id="EfcbHoqVgBAvjW8AKtv0-55" value="&lt;div&gt;&lt;div&gt;&lt;font style=&quot;font-size: 14px;&quot;&gt;output : BALM_output&lt;/font&gt;&lt;/div&gt;&lt;/div&gt;&lt;div&gt;&lt;/div&gt;&lt;div&gt;&lt;/div&gt;" style="text;strokeColor=default;fillColor=none;align=left;verticalAlign=middle;spacingLeft=4;spacingRight=4;overflow=hidden;points=[[0,0.5],[1,0.5]];portConstraint=eastwest;rotatable=0;whiteSpace=wrap;html=1;fontFamily=Times New Roman;" vertex="1" parent="EfcbHoqVgBAvjW8AKtv0-53">
          <mxGeometry y="90" width="273.12" height="40" as="geometry" />
        </mxCell>
        <mxCell id="EfcbHoqVgBAvjW8AKtv0-56" value="&lt;div&gt;&lt;font style=&quot;font-size: 14px;&quot;&gt;function: Fixed normalized currents (from CAXE eq), dW eigenvalues on the (p&#39;,j) grid were calculated as instability growth rates&lt;/font&gt;&lt;/div&gt;" style="text;strokeColor=default;fillColor=none;align=left;verticalAlign=middle;spacingLeft=4;spacingRight=4;overflow=hidden;points=[[0,0.5],[1,0.5]];portConstraint=eastwest;rotatable=0;whiteSpace=wrap;html=1;fontFamily=Times New Roman;" vertex="1" parent="EfcbHoqVgBAvjW8AKtv0-53">
          <mxGeometry y="130" width="273.12" height="60" as="geometry" />
        </mxCell>
        <mxCell id="EfcbHoqVgBAvjW8AKtv0-49" value="&lt;font color=&quot;#131300&quot;&gt;&lt;span style=&quot;font-size: 16px; text-wrap: nowrap;&quot;&gt;&lt;b&gt;balm2ped&lt;/b&gt;&lt;/span&gt;&lt;/font&gt;" style="swimlane;fontStyle=0;childLayout=stackLayout;horizontal=1;startSize=30;horizontalStack=0;resizeParent=1;resizeParentMax=0;resizeLast=0;collapsible=1;marginBottom=0;whiteSpace=wrap;html=1;fillColor=#e1d5e7;strokeColor=#9673a6;fontFamily=Times New Roman;" vertex="1" parent="EfcbHoqVgBAvjW8AKtv0-18">
          <mxGeometry x="60" y="695" width="273.12" height="190" as="geometry" />
        </mxCell>
        <mxCell id="EfcbHoqVgBAvjW8AKtv0-50" value="&lt;div&gt;&lt;font size=&quot;1&quot; color=&quot;#131300&quot;&gt;&lt;span style=&quot;caret-color: rgb(19, 19, 0); text-wrap: nowrap; font-size: 14px;&quot;&gt;input :&amp;nbsp;&lt;/span&gt;&lt;/font&gt;&lt;span style=&quot;background-color: initial; font-size: 14px; caret-color: rgb(19, 19, 0); text-wrap: nowrap;&quot;&gt;&lt;font color=&quot;#131300&quot;&gt;scase, S09MAX, S09KNE, S09CUT,&amp;nbsp;&lt;/font&gt;&lt;/span&gt;&lt;/div&gt;&lt;div&gt;&lt;span style=&quot;background-color: initial; font-size: 14px; caret-color: rgb(19, 19, 0); text-wrap: nowrap;&quot;&gt;&lt;font color=&quot;#131300&quot;&gt;S09&lt;/font&gt;&lt;/span&gt;&lt;/div&gt;" style="text;strokeColor=default;fillColor=none;align=left;verticalAlign=middle;spacingLeft=4;spacingRight=4;overflow=hidden;points=[[0,0.5],[1,0.5]];portConstraint=eastwest;rotatable=0;whiteSpace=wrap;html=1;fontFamily=Times New Roman;" vertex="1" parent="EfcbHoqVgBAvjW8AKtv0-49">
          <mxGeometry y="30" width="273.12" height="60" as="geometry" />
        </mxCell>
        <mxCell id="EfcbHoqVgBAvjW8AKtv0-51" value="&lt;div&gt;&lt;div&gt;&lt;font style=&quot;font-size: 14px;&quot;&gt;output : pedestal profiles&#39; figures&lt;/font&gt;&lt;/div&gt;&lt;/div&gt;&lt;div&gt;&lt;/div&gt;&lt;div&gt;&lt;/div&gt;" style="text;strokeColor=default;fillColor=none;align=left;verticalAlign=middle;spacingLeft=4;spacingRight=4;overflow=hidden;points=[[0,0.5],[1,0.5]];portConstraint=eastwest;rotatable=0;whiteSpace=wrap;html=1;fontFamily=Times New Roman;" vertex="1" parent="EfcbHoqVgBAvjW8AKtv0-49">
          <mxGeometry y="90" width="273.12" height="50" as="geometry" />
        </mxCell>
        <mxCell id="EfcbHoqVgBAvjW8AKtv0-52" value="&lt;div&gt;&lt;font style=&quot;font-size: 14px;&quot;&gt;function: zoom display of pedestal region&amp;nbsp;&lt;/font&gt;&lt;/div&gt;" style="text;strokeColor=default;fillColor=none;align=left;verticalAlign=middle;spacingLeft=4;spacingRight=4;overflow=hidden;points=[[0,0.5],[1,0.5]];portConstraint=eastwest;rotatable=0;whiteSpace=wrap;html=1;fontFamily=Times New Roman;" vertex="1" parent="EfcbHoqVgBAvjW8AKtv0-49">
          <mxGeometry y="140" width="273.12" height="50" as="geometry" />
        </mxCell>
        <mxCell id="EfcbHoqVgBAvjW8AKtv0-57" value="&lt;font color=&quot;#131300&quot;&gt;&lt;span style=&quot;font-size: 16px; text-wrap: nowrap;&quot;&gt;&lt;b&gt;plot_ballooning_stability&lt;/b&gt;&lt;/span&gt;&lt;/font&gt;" style="swimlane;fontStyle=0;childLayout=stackLayout;horizontal=1;startSize=30;horizontalStack=0;resizeParent=1;resizeParentMax=0;resizeLast=0;collapsible=1;marginBottom=0;whiteSpace=wrap;html=1;fillColor=#e1d5e7;strokeColor=#9673a6;fontFamily=Times New Roman;" vertex="1" parent="EfcbHoqVgBAvjW8AKtv0-18">
          <mxGeometry x="60" y="1145" width="273.12" height="180" as="geometry" />
        </mxCell>
        <mxCell id="EfcbHoqVgBAvjW8AKtv0-58" value="&lt;div&gt;&lt;font size=&quot;1&quot; color=&quot;#131300&quot;&gt;&lt;span style=&quot;caret-color: rgb(19, 19, 0); text-wrap: nowrap; font-size: 14px;&quot;&gt;input :&amp;nbsp;&lt;/span&gt;&lt;/font&gt;&lt;span style=&quot;caret-color: rgb(0, 0, 0); background-color: initial;&quot;&gt;eqname,BALM_output,physical,location,&lt;/span&gt;&lt;/div&gt;&lt;div&gt;&lt;span style=&quot;caret-color: rgb(0, 0, 0); background-color: initial;&quot;&gt;ifigs&lt;/span&gt;&lt;/div&gt;" style="text;strokeColor=default;fillColor=none;align=left;verticalAlign=middle;spacingLeft=4;spacingRight=4;overflow=hidden;points=[[0,0.5],[1,0.5]];portConstraint=eastwest;rotatable=0;whiteSpace=wrap;html=1;fontFamily=Times New Roman;" vertex="1" parent="EfcbHoqVgBAvjW8AKtv0-57">
          <mxGeometry y="30" width="273.12" height="50" as="geometry" />
        </mxCell>
        <mxCell id="EfcbHoqVgBAvjW8AKtv0-59" value="&lt;div&gt;&lt;div&gt;&lt;font style=&quot;font-size: 14px;&quot;&gt;output : [ifigs,data]&lt;/font&gt;&lt;/div&gt;&lt;/div&gt;&lt;div&gt;&lt;/div&gt;&lt;div&gt;&lt;/div&gt;" style="text;strokeColor=default;fillColor=none;align=left;verticalAlign=middle;spacingLeft=4;spacingRight=4;overflow=hidden;points=[[0,0.5],[1,0.5]];portConstraint=eastwest;rotatable=0;whiteSpace=wrap;html=1;fontFamily=Times New Roman;" vertex="1" parent="EfcbHoqVgBAvjW8AKtv0-57">
          <mxGeometry y="80" width="273.12" height="50" as="geometry" />
        </mxCell>
        <mxCell id="EfcbHoqVgBAvjW8AKtv0-60" value="&lt;div&gt;&lt;font style=&quot;font-size: 14px;&quot;&gt;function: Plot infinite-n ballooning stability boundary&lt;/font&gt;&lt;/div&gt;" style="text;strokeColor=default;fillColor=none;align=left;verticalAlign=middle;spacingLeft=4;spacingRight=4;overflow=hidden;points=[[0,0.5],[1,0.5]];portConstraint=eastwest;rotatable=0;whiteSpace=wrap;html=1;fontFamily=Times New Roman;" vertex="1" parent="EfcbHoqVgBAvjW8AKtv0-57">
          <mxGeometry y="130" width="273.12" height="50" as="geometry" />
        </mxCell>
        <mxCell id="EfcbHoqVgBAvjW8AKtv0-61" value="" style="html=1;shadow=0;dashed=0;align=center;verticalAlign=middle;shape=mxgraph.arrows2.arrow;dy=0.6;dx=40;direction=south;notch=0;fillColor=#FFFF00;" vertex="1" parent="EfcbHoqVgBAvjW8AKtv0-18">
          <mxGeometry x="34.5" y="62" width="20" height="1260" as="geometry" />
        </mxCell>
        <mxCell id="EfcbHoqVgBAvjW8AKtv0-42" value="&lt;font style=&quot;font-size: 14px;&quot; face=&quot;Helvetica&quot;&gt;Call&lt;/font&gt;" style="edgeStyle=orthogonalEdgeStyle;rounded=0;orthogonalLoop=1;jettySize=auto;html=1;exitX=1;exitY=0.5;exitDx=0;exitDy=0;entryX=0;entryY=0.5;entryDx=0;entryDy=0;strokeColor=#FF3333;strokeWidth=2;fontSize=12;fontStyle=1;fontFamily=Times New Roman;" edge="1" parent="EfcbHoqVgBAvjW8AKtv0-1" source="EfcbHoqVgBAvjW8AKtv0-51" target="EfcbHoqVgBAvjW8AKtv0-39">
          <mxGeometry relative="1" as="geometry" />
        </mxCell>
        <mxCell id="EfcbHoqVgBAvjW8AKtv0-140" value="&lt;b&gt;&lt;font style=&quot;font-size: 14px;&quot;&gt;Call&lt;/font&gt;&lt;/b&gt;" style="edgeStyle=orthogonalEdgeStyle;rounded=0;orthogonalLoop=1;jettySize=auto;html=1;entryX=0.163;entryY=0.838;entryDx=0;entryDy=0;entryPerimeter=0;strokeColor=#FF0000;strokeWidth=3;" edge="1" parent="EfcbHoqVgBAvjW8AKtv0-1" source="EfcbHoqVgBAvjW8AKtv0-21" target="EfcbHoqVgBAvjW8AKtv0-125">
          <mxGeometry x="-0.0047" relative="1" as="geometry">
            <mxPoint as="offset" />
          </mxGeometry>
        </mxCell>
        <mxCell id="EfcbHoqVgBAvjW8AKtv0-142" value="&lt;b&gt;&lt;font style=&quot;font-size: 14px;&quot;&gt;Call&lt;/font&gt;&lt;/b&gt;" style="edgeStyle=orthogonalEdgeStyle;rounded=0;orthogonalLoop=1;jettySize=auto;html=1;entryX=0.066;entryY=0.855;entryDx=0;entryDy=0;entryPerimeter=0;strokeColor=#FF0000;strokeWidth=2;" edge="1" parent="EfcbHoqVgBAvjW8AKtv0-1" source="EfcbHoqVgBAvjW8AKtv0-11" target="EfcbHoqVgBAvjW8AKtv0-61">
          <mxGeometry relative="1" as="geometry" />
        </mxCell>
        <mxCell id="EfcbHoqVgBAvjW8AKtv0-144" value="&lt;b&gt;&lt;font style=&quot;font-size: 14px;&quot;&gt;Call&lt;/font&gt;&lt;/b&gt;" style="edgeStyle=orthogonalEdgeStyle;rounded=0;orthogonalLoop=1;jettySize=auto;html=1;entryX=0.756;entryY=0.858;entryDx=0;entryDy=0;entryPerimeter=0;strokeColor=#FF0000;strokeWidth=2;" edge="1" parent="EfcbHoqVgBAvjW8AKtv0-1" source="EfcbHoqVgBAvjW8AKtv0-53" target="EfcbHoqVgBAvjW8AKtv0-126">
          <mxGeometry relative="1" as="geometry" />
        </mxCell>
        <mxCell id="EfcbHoqVgBAvjW8AKtv0-24" value="&lt;font style=&quot;font-size: 22px;&quot;&gt;Third level&lt;/font&gt;" style="swimlane;html=1;startSize=40;fontFamily=Times New Roman;fontSize=22;" vertex="1" parent="EfcbHoqVgBAvjW8AKtv0-1">
          <mxGeometry x="620" y="60" width="880" height="1360" as="geometry" />
        </mxCell>
        <mxCell id="EfcbHoqVgBAvjW8AKtv0-25" value="&lt;font color=&quot;#131300&quot;&gt;&lt;span style=&quot;font-size: 16px; text-wrap: nowrap;&quot;&gt;&lt;b&gt;caxekinx_path&lt;/b&gt;&lt;/span&gt;&lt;/font&gt;" style="swimlane;fontStyle=0;childLayout=stackLayout;horizontal=1;startSize=30;horizontalStack=0;resizeParent=1;resizeParentMax=0;resizeLast=0;collapsible=1;marginBottom=0;whiteSpace=wrap;html=1;fillColor=#ffe6cc;strokeColor=#d79b00;fontFamily=Times New Roman;" vertex="1" parent="EfcbHoqVgBAvjW8AKtv0-24">
          <mxGeometry x="57" y="60" width="290" height="150" as="geometry" />
        </mxCell>
        <mxCell id="EfcbHoqVgBAvjW8AKtv0-26" value="&lt;div style=&quot;font-size: 14px;&quot;&gt;&lt;font style=&quot;font-size: 14px;&quot; color=&quot;#131300&quot;&gt;&lt;span style=&quot;caret-color: rgb(19, 19, 0); text-wrap: nowrap; font-size: 14px;&quot;&gt;input :&amp;nbsp;&lt;/span&gt;&lt;/font&gt;&lt;span style=&quot;caret-color: rgb(0, 0, 0); background-color: initial;&quot;&gt;machine&lt;/span&gt;&lt;/div&gt;" style="text;strokeColor=default;fillColor=none;align=left;verticalAlign=middle;spacingLeft=4;spacingRight=4;overflow=hidden;points=[[0,0.5],[1,0.5]];portConstraint=eastwest;rotatable=0;whiteSpace=wrap;html=1;fontFamily=Times New Roman;fontSize=14;" vertex="1" parent="EfcbHoqVgBAvjW8AKtv0-25">
          <mxGeometry y="30" width="290" height="30" as="geometry" />
        </mxCell>
        <mxCell id="EfcbHoqVgBAvjW8AKtv0-27" value="&lt;div&gt;&lt;div&gt;&lt;font style=&quot;font-size: 14px;&quot;&gt;output : ck_path&lt;/font&gt;&lt;/div&gt;&lt;/div&gt;&lt;div&gt;&lt;/div&gt;&lt;div&gt;&lt;/div&gt;" style="text;strokeColor=default;fillColor=none;align=left;verticalAlign=middle;spacingLeft=4;spacingRight=4;overflow=hidden;points=[[0,0.5],[1,0.5]];portConstraint=eastwest;rotatable=0;whiteSpace=wrap;html=1;fontFamily=Times New Roman;" vertex="1" parent="EfcbHoqVgBAvjW8AKtv0-25">
          <mxGeometry y="60" width="290" height="40" as="geometry" />
        </mxCell>
        <mxCell id="EfcbHoqVgBAvjW8AKtv0-28" value="&lt;div&gt;&lt;font style=&quot;font-size: 14px;&quot;&gt;function: provides machine or profile dependent path information for CAXE and KINX&lt;/font&gt;&lt;/div&gt;" style="text;strokeColor=default;fillColor=none;align=left;verticalAlign=middle;spacingLeft=4;spacingRight=4;overflow=hidden;points=[[0,0.5],[1,0.5]];portConstraint=eastwest;rotatable=0;whiteSpace=wrap;html=1;fontFamily=Times New Roman;" vertex="1" parent="EfcbHoqVgBAvjW8AKtv0-25">
          <mxGeometry y="100" width="290" height="50" as="geometry" />
        </mxCell>
        <mxCell id="EfcbHoqVgBAvjW8AKtv0-33" value="&lt;font color=&quot;#131300&quot;&gt;&lt;span style=&quot;font-size: 16px; text-wrap: nowrap;&quot;&gt;&lt;b&gt;write_input_file_CAXE&lt;/b&gt;&lt;/span&gt;&lt;/font&gt;" style="swimlane;fontStyle=0;childLayout=stackLayout;horizontal=1;startSize=30;horizontalStack=0;resizeParent=1;resizeParentMax=0;resizeLast=0;collapsible=1;marginBottom=0;whiteSpace=wrap;html=1;fillColor=#ffe6cc;strokeColor=#d79b00;fontFamily=Times New Roman;" vertex="1" parent="EfcbHoqVgBAvjW8AKtv0-24">
          <mxGeometry x="55.5" y="380" width="293" height="130" as="geometry" />
        </mxCell>
        <mxCell id="EfcbHoqVgBAvjW8AKtv0-34" value="&lt;div style=&quot;font-size: 14px;&quot;&gt;&lt;div style=&quot;font-size: 14px;&quot;&gt;input : fname,CAXE_input&lt;/div&gt;&lt;/div&gt;&lt;div style=&quot;font-size: 14px;&quot;&gt;&lt;/div&gt;&lt;div style=&quot;font-size: 14px;&quot;&gt;&lt;/div&gt;" style="text;strokeColor=default;fillColor=none;align=left;verticalAlign=middle;spacingLeft=4;spacingRight=4;overflow=hidden;points=[[0,0.5],[1,0.5]];portConstraint=eastwest;rotatable=0;whiteSpace=wrap;html=1;fontFamily=Times New Roman;fontSize=14;" vertex="1" parent="EfcbHoqVgBAvjW8AKtv0-33">
          <mxGeometry y="30" width="293" height="30" as="geometry" />
        </mxCell>
        <mxCell id="EfcbHoqVgBAvjW8AKtv0-35" value="&lt;div style=&quot;&quot;&gt;&lt;font style=&quot;font-size: 14px;&quot; color=&quot;#131300&quot;&gt;&lt;span style=&quot;caret-color: rgb(19, 19, 0); text-wrap: nowrap; font-size: 14px;&quot;&gt;output :&amp;nbsp;&lt;/span&gt;&lt;/font&gt;&lt;span style=&quot;background-color: initial; caret-color: rgb(19, 19, 0); text-wrap: nowrap;&quot;&gt;&lt;font color=&quot;#131300&quot;&gt;status&lt;/font&gt;&lt;/span&gt;&lt;/div&gt;" style="text;strokeColor=default;fillColor=none;align=left;verticalAlign=middle;spacingLeft=4;spacingRight=4;overflow=hidden;points=[[0,0.5],[1,0.5]];portConstraint=eastwest;rotatable=0;whiteSpace=wrap;html=1;fontFamily=Times New Roman;fontSize=14;" vertex="1" parent="EfcbHoqVgBAvjW8AKtv0-33">
          <mxGeometry y="60" width="293" height="30" as="geometry" />
        </mxCell>
        <mxCell id="EfcbHoqVgBAvjW8AKtv0-36" value="&lt;div style=&quot;font-size: 14px;&quot;&gt;function: Writes an input file for the CAXE code with contents specified in a structure&lt;/div&gt;" style="text;strokeColor=default;fillColor=none;align=left;verticalAlign=middle;spacingLeft=4;spacingRight=4;overflow=hidden;points=[[0,0.5],[1,0.5]];portConstraint=eastwest;rotatable=0;whiteSpace=wrap;html=1;fontFamily=Times New Roman;fontSize=14;" vertex="1" parent="EfcbHoqVgBAvjW8AKtv0-33">
          <mxGeometry y="90" width="293" height="40" as="geometry" />
        </mxCell>
        <mxCell id="EfcbHoqVgBAvjW8AKtv0-37" value="&lt;font color=&quot;#131300&quot;&gt;&lt;span style=&quot;font-size: 16px; text-wrap: nowrap;&quot;&gt;&lt;b&gt;balm2000_jbs&lt;/b&gt;&lt;/span&gt;&lt;/font&gt;" style="swimlane;fontStyle=0;childLayout=stackLayout;horizontal=1;startSize=30;horizontalStack=0;resizeParent=1;resizeParentMax=0;resizeLast=0;collapsible=1;marginBottom=0;whiteSpace=wrap;html=1;fillColor=#ffe6cc;strokeColor=#d79b00;fontFamily=Times New Roman;" vertex="1" parent="EfcbHoqVgBAvjW8AKtv0-24">
          <mxGeometry x="57" y="820" width="290" height="140" as="geometry" />
        </mxCell>
        <mxCell id="EfcbHoqVgBAvjW8AKtv0-38" value="&lt;div&gt;&lt;font size=&quot;1&quot; color=&quot;#131300&quot;&gt;&lt;span style=&quot;caret-color: rgb(19, 19, 0); text-wrap: nowrap; font-size: 14px;&quot;&gt;input : None&lt;/span&gt;&lt;/font&gt;&lt;/div&gt;" style="text;strokeColor=default;fillColor=none;align=left;verticalAlign=middle;spacingLeft=4;spacingRight=4;overflow=hidden;points=[[0,0.5],[1,0.5]];portConstraint=eastwest;rotatable=0;whiteSpace=wrap;html=1;fontFamily=Times New Roman;" vertex="1" parent="EfcbHoqVgBAvjW8AKtv0-37">
          <mxGeometry y="30" width="290" height="30" as="geometry" />
        </mxCell>
        <mxCell id="EfcbHoqVgBAvjW8AKtv0-39" value="&lt;div&gt;&lt;div&gt;&lt;font style=&quot;font-size: 14px;&quot;&gt;output : some marks in the figures&lt;/font&gt;&lt;/div&gt;&lt;/div&gt;&lt;div&gt;&lt;/div&gt;&lt;div&gt;&lt;/div&gt;" style="text;strokeColor=default;fillColor=none;align=left;verticalAlign=middle;spacingLeft=4;spacingRight=4;overflow=hidden;points=[[0,0.5],[1,0.5]];portConstraint=eastwest;rotatable=0;whiteSpace=wrap;html=1;fontFamily=Times New Roman;" vertex="1" parent="EfcbHoqVgBAvjW8AKtv0-37">
          <mxGeometry y="60" width="290" height="40" as="geometry" />
        </mxCell>
        <mxCell id="EfcbHoqVgBAvjW8AKtv0-40" value="&lt;div&gt;&lt;font style=&quot;font-size: 14px;&quot;&gt;function:&amp;nbsp;&lt;/font&gt;&lt;span style=&quot;font-size: 14px; background-color: initial;&quot;&gt;add max/knee/cut marks&amp;nbsp;&lt;/span&gt;&lt;/div&gt;" style="text;strokeColor=default;fillColor=none;align=left;verticalAlign=middle;spacingLeft=4;spacingRight=4;overflow=hidden;points=[[0,0.5],[1,0.5]];portConstraint=eastwest;rotatable=0;whiteSpace=wrap;html=1;fontFamily=Times New Roman;" vertex="1" parent="EfcbHoqVgBAvjW8AKtv0-37">
          <mxGeometry y="100" width="290" height="40" as="geometry" />
        </mxCell>
        <mxCell id="EfcbHoqVgBAvjW8AKtv0-45" value="&lt;font color=&quot;#131300&quot;&gt;&lt;span style=&quot;font-size: 16px; text-wrap: nowrap;&quot;&gt;&lt;b&gt;read_CAXE_out&lt;/b&gt;&lt;/span&gt;&lt;/font&gt;" style="swimlane;fontStyle=0;childLayout=stackLayout;horizontal=1;startSize=30;horizontalStack=0;resizeParent=1;resizeParentMax=0;resizeLast=0;collapsible=1;marginBottom=0;whiteSpace=wrap;html=1;fillColor=#ffe6cc;strokeColor=#d79b00;fontFamily=Times New Roman;" vertex="1" parent="EfcbHoqVgBAvjW8AKtv0-24">
          <mxGeometry x="58.5" y="530" width="290" height="170" as="geometry" />
        </mxCell>
        <mxCell id="EfcbHoqVgBAvjW8AKtv0-46" value="&lt;div&gt;&lt;font size=&quot;1&quot; color=&quot;#131300&quot;&gt;&lt;span style=&quot;caret-color: rgb(19, 19, 0); text-wrap: nowrap; font-size: 14px;&quot;&gt;input :&amp;nbsp;&lt;/span&gt;&lt;/font&gt;&lt;span style=&quot;background-color: initial; font-size: 14px; caret-color: rgb(19, 19, 0); text-wrap: nowrap;&quot;&gt;&lt;font color=&quot;#131300&quot;&gt;dirname,eqname&lt;/font&gt;&lt;/span&gt;&lt;/div&gt;" style="text;strokeColor=default;fillColor=none;align=left;verticalAlign=middle;spacingLeft=4;spacingRight=4;overflow=hidden;points=[[0,0.5],[1,0.5]];portConstraint=eastwest;rotatable=0;whiteSpace=wrap;html=1;fontFamily=Times New Roman;" vertex="1" parent="EfcbHoqVgBAvjW8AKtv0-45">
          <mxGeometry y="30" width="290" height="40" as="geometry" />
        </mxCell>
        <mxCell id="EfcbHoqVgBAvjW8AKtv0-47" value="&lt;div&gt;&lt;div&gt;&lt;font style=&quot;font-size: 14px;&quot;&gt;output : CAXE_edge&lt;/font&gt;&lt;/div&gt;&lt;/div&gt;&lt;div&gt;&lt;/div&gt;&lt;div&gt;&lt;/div&gt;" style="text;strokeColor=default;fillColor=none;align=left;verticalAlign=middle;spacingLeft=4;spacingRight=4;overflow=hidden;points=[[0,0.5],[1,0.5]];portConstraint=eastwest;rotatable=0;whiteSpace=wrap;html=1;fontFamily=Times New Roman;" vertex="1" parent="EfcbHoqVgBAvjW8AKtv0-45">
          <mxGeometry y="70" width="290" height="40" as="geometry" />
        </mxCell>
        <mxCell id="EfcbHoqVgBAvjW8AKtv0-48" value="&lt;div&gt;&lt;font style=&quot;font-size: 14px;&quot;&gt;function:&amp;nbsp;&lt;/font&gt;&lt;span style=&quot;background-color: initial;&quot;&gt;&lt;font style=&quot;font-size: 14px;&quot;&gt;Parses the (eqname)_caxe.out file for pedestal parameters&lt;/font&gt;&lt;/span&gt;&lt;/div&gt;" style="text;strokeColor=default;fillColor=none;align=left;verticalAlign=middle;spacingLeft=4;spacingRight=4;overflow=hidden;points=[[0,0.5],[1,0.5]];portConstraint=eastwest;rotatable=0;whiteSpace=wrap;html=1;fontFamily=Times New Roman;" vertex="1" parent="EfcbHoqVgBAvjW8AKtv0-45">
          <mxGeometry y="110" width="290" height="60" as="geometry" />
        </mxCell>
        <mxCell id="EfcbHoqVgBAvjW8AKtv0-63" value="&lt;font color=&quot;#131300&quot;&gt;&lt;span style=&quot;font-size: 16px; text-wrap: nowrap;&quot;&gt;&lt;b&gt;read_input_file_CAXE&lt;/b&gt;&lt;/span&gt;&lt;/font&gt;" style="swimlane;fontStyle=0;childLayout=stackLayout;horizontal=1;startSize=30;horizontalStack=0;resizeParent=1;resizeParentMax=0;resizeLast=0;collapsible=1;marginBottom=0;whiteSpace=wrap;html=1;fillColor=#ffe6cc;strokeColor=#d79b00;fontFamily=Times New Roman;" vertex="1" parent="EfcbHoqVgBAvjW8AKtv0-24">
          <mxGeometry x="58.5" y="230" width="290" height="130" as="geometry" />
        </mxCell>
        <mxCell id="EfcbHoqVgBAvjW8AKtv0-64" value="&lt;div style=&quot;font-size: 14px;&quot;&gt;&lt;div style=&quot;font-size: 14px;&quot;&gt;input : varargin&lt;/div&gt;&lt;/div&gt;&lt;div style=&quot;font-size: 14px;&quot;&gt;&lt;/div&gt;&lt;div style=&quot;font-size: 14px;&quot;&gt;&lt;/div&gt;" style="text;strokeColor=default;fillColor=none;align=left;verticalAlign=middle;spacingLeft=4;spacingRight=4;overflow=hidden;points=[[0,0.5],[1,0.5]];portConstraint=eastwest;rotatable=0;whiteSpace=wrap;html=1;fontFamily=Times New Roman;fontSize=14;" vertex="1" parent="EfcbHoqVgBAvjW8AKtv0-63">
          <mxGeometry y="30" width="290" height="30" as="geometry" />
        </mxCell>
        <mxCell id="EfcbHoqVgBAvjW8AKtv0-65" value="&lt;div style=&quot;&quot;&gt;&lt;font style=&quot;font-size: 14px;&quot; color=&quot;#131300&quot;&gt;&lt;span style=&quot;caret-color: rgb(19, 19, 0); text-wrap: nowrap; font-size: 14px;&quot;&gt;output :&amp;nbsp;&lt;/span&gt;&lt;/font&gt;&lt;span style=&quot;background-color: initial; caret-color: rgb(19, 19, 0); text-wrap: nowrap;&quot;&gt;&lt;font color=&quot;#131300&quot;&gt;CAXE_input&lt;/font&gt;&lt;/span&gt;&lt;/div&gt;" style="text;strokeColor=default;fillColor=none;align=left;verticalAlign=middle;spacingLeft=4;spacingRight=4;overflow=hidden;points=[[0,0.5],[1,0.5]];portConstraint=eastwest;rotatable=0;whiteSpace=wrap;html=1;fontFamily=Times New Roman;fontSize=14;" vertex="1" parent="EfcbHoqVgBAvjW8AKtv0-63">
          <mxGeometry y="60" width="290" height="30" as="geometry" />
        </mxCell>
        <mxCell id="EfcbHoqVgBAvjW8AKtv0-66" value="&lt;div style=&quot;font-size: 14px;&quot;&gt;function: Reads a CAXE input file into a&amp;nbsp;&lt;span style=&quot;background-color: initial;&quot;&gt;structure&lt;/span&gt;&lt;/div&gt;" style="text;strokeColor=default;fillColor=none;align=left;verticalAlign=middle;spacingLeft=4;spacingRight=4;overflow=hidden;points=[[0,0.5],[1,0.5]];portConstraint=eastwest;rotatable=0;whiteSpace=wrap;html=1;fontFamily=Times New Roman;fontSize=14;" vertex="1" parent="EfcbHoqVgBAvjW8AKtv0-63">
          <mxGeometry y="90" width="290" height="40" as="geometry" />
        </mxCell>
        <mxCell id="EfcbHoqVgBAvjW8AKtv0-67" value="&lt;font color=&quot;#131300&quot;&gt;&lt;span style=&quot;font-size: 16px; text-wrap: nowrap;&quot;&gt;&lt;b&gt;caxekinx_batch&lt;/b&gt;&lt;/span&gt;&lt;/font&gt;" style="swimlane;fontStyle=0;childLayout=stackLayout;horizontal=1;startSize=30;horizontalStack=0;resizeParent=1;resizeParentMax=0;resizeLast=0;collapsible=1;marginBottom=0;whiteSpace=wrap;html=1;fillColor=#ffe6cc;strokeColor=#d79b00;fontFamily=Times New Roman;" vertex="1" parent="EfcbHoqVgBAvjW8AKtv0-24">
          <mxGeometry x="394.5" y="121" width="290" height="150" as="geometry" />
        </mxCell>
        <mxCell id="EfcbHoqVgBAvjW8AKtv0-68" value="&lt;div style=&quot;font-size: 14px;&quot;&gt;&lt;font style=&quot;font-size: 14px;&quot; color=&quot;#131300&quot;&gt;&lt;span style=&quot;caret-color: rgb(19, 19, 0); text-wrap: nowrap; font-size: 14px;&quot;&gt;input :&amp;nbsp;&lt;/span&gt;&lt;/font&gt;&lt;span style=&quot;caret-color: rgb(0, 0, 0); background-color: initial;&quot;&gt;machine&lt;/span&gt;&lt;/div&gt;" style="text;strokeColor=default;fillColor=none;align=left;verticalAlign=middle;spacingLeft=4;spacingRight=4;overflow=hidden;points=[[0,0.5],[1,0.5]];portConstraint=eastwest;rotatable=0;whiteSpace=wrap;html=1;fontFamily=Times New Roman;fontSize=14;" vertex="1" parent="EfcbHoqVgBAvjW8AKtv0-67">
          <mxGeometry y="30" width="290" height="30" as="geometry" />
        </mxCell>
        <mxCell id="EfcbHoqVgBAvjW8AKtv0-69" value="&lt;div&gt;&lt;div&gt;&lt;font style=&quot;font-size: 14px;&quot;&gt;output : ck_batch&lt;/font&gt;&lt;/div&gt;&lt;/div&gt;&lt;div&gt;&lt;/div&gt;&lt;div&gt;&lt;/div&gt;" style="text;strokeColor=default;fillColor=none;align=left;verticalAlign=middle;spacingLeft=4;spacingRight=4;overflow=hidden;points=[[0,0.5],[1,0.5]];portConstraint=eastwest;rotatable=0;whiteSpace=wrap;html=1;fontFamily=Times New Roman;" vertex="1" parent="EfcbHoqVgBAvjW8AKtv0-67">
          <mxGeometry y="60" width="290" height="40" as="geometry" />
        </mxCell>
        <mxCell id="EfcbHoqVgBAvjW8AKtv0-70" value="&lt;div&gt;&lt;font style=&quot;font-size: 14px;&quot;&gt;function: provides machine or profile dependent batch information for CAXE and KINX&lt;/font&gt;&lt;/div&gt;" style="text;strokeColor=default;fillColor=none;align=left;verticalAlign=middle;spacingLeft=4;spacingRight=4;overflow=hidden;points=[[0,0.5],[1,0.5]];portConstraint=eastwest;rotatable=0;whiteSpace=wrap;html=1;fontFamily=Times New Roman;" vertex="1" parent="EfcbHoqVgBAvjW8AKtv0-67">
          <mxGeometry y="100" width="290" height="50" as="geometry" />
        </mxCell>
        <mxCell id="EfcbHoqVgBAvjW8AKtv0-71" value="&lt;font color=&quot;#131300&quot;&gt;&lt;span style=&quot;font-size: 16px; text-wrap: nowrap;&quot;&gt;&lt;b&gt;read_input_file_BALM&lt;/b&gt;&lt;/span&gt;&lt;/font&gt;" style="swimlane;fontStyle=0;childLayout=stackLayout;horizontal=1;startSize=30;horizontalStack=0;resizeParent=1;resizeParentMax=0;resizeLast=0;collapsible=1;marginBottom=0;whiteSpace=wrap;html=1;fillColor=#ffe6cc;strokeColor=#d79b00;fontFamily=Times New Roman;" vertex="1" parent="EfcbHoqVgBAvjW8AKtv0-24">
          <mxGeometry x="394.5" y="301" width="290" height="130" as="geometry" />
        </mxCell>
        <mxCell id="EfcbHoqVgBAvjW8AKtv0-72" value="&lt;div style=&quot;font-size: 14px;&quot;&gt;&lt;div style=&quot;font-size: 14px;&quot;&gt;input : varargin&lt;/div&gt;&lt;/div&gt;&lt;div style=&quot;font-size: 14px;&quot;&gt;&lt;/div&gt;&lt;div style=&quot;font-size: 14px;&quot;&gt;&lt;/div&gt;" style="text;strokeColor=default;fillColor=none;align=left;verticalAlign=middle;spacingLeft=4;spacingRight=4;overflow=hidden;points=[[0,0.5],[1,0.5]];portConstraint=eastwest;rotatable=0;whiteSpace=wrap;html=1;fontFamily=Times New Roman;fontSize=14;" vertex="1" parent="EfcbHoqVgBAvjW8AKtv0-71">
          <mxGeometry y="30" width="290" height="30" as="geometry" />
        </mxCell>
        <mxCell id="EfcbHoqVgBAvjW8AKtv0-73" value="&lt;div style=&quot;&quot;&gt;&lt;font style=&quot;font-size: 14px;&quot; color=&quot;#131300&quot;&gt;&lt;span style=&quot;caret-color: rgb(19, 19, 0); text-wrap: nowrap; font-size: 14px;&quot;&gt;output :&amp;nbsp;&lt;/span&gt;&lt;/font&gt;&lt;span style=&quot;background-color: initial; caret-color: rgb(19, 19, 0); text-wrap: nowrap;&quot;&gt;&lt;font color=&quot;#131300&quot;&gt;BALM_input&lt;/font&gt;&lt;/span&gt;&lt;/div&gt;" style="text;strokeColor=default;fillColor=none;align=left;verticalAlign=middle;spacingLeft=4;spacingRight=4;overflow=hidden;points=[[0,0.5],[1,0.5]];portConstraint=eastwest;rotatable=0;whiteSpace=wrap;html=1;fontFamily=Times New Roman;fontSize=14;" vertex="1" parent="EfcbHoqVgBAvjW8AKtv0-71">
          <mxGeometry y="60" width="290" height="30" as="geometry" />
        </mxCell>
        <mxCell id="EfcbHoqVgBAvjW8AKtv0-74" value="&lt;div style=&quot;font-size: 14px;&quot;&gt;function: Reads a BALM input file into a&amp;nbsp;&lt;span style=&quot;background-color: initial;&quot;&gt;structure&lt;/span&gt;&lt;/div&gt;" style="text;strokeColor=default;fillColor=none;align=left;verticalAlign=middle;spacingLeft=4;spacingRight=4;overflow=hidden;points=[[0,0.5],[1,0.5]];portConstraint=eastwest;rotatable=0;whiteSpace=wrap;html=1;fontFamily=Times New Roman;fontSize=14;" vertex="1" parent="EfcbHoqVgBAvjW8AKtv0-71">
          <mxGeometry y="90" width="290" height="40" as="geometry" />
        </mxCell>
        <mxCell id="EfcbHoqVgBAvjW8AKtv0-99" value="&lt;font color=&quot;#131300&quot;&gt;&lt;span style=&quot;font-size: 16px; text-wrap: nowrap;&quot;&gt;&lt;b&gt;caxekinx_path&lt;/b&gt;&lt;/span&gt;&lt;/font&gt;" style="swimlane;fontStyle=0;childLayout=stackLayout;horizontal=1;startSize=30;horizontalStack=0;resizeParent=1;resizeParentMax=0;resizeLast=0;collapsible=1;marginBottom=0;whiteSpace=wrap;html=1;fillColor=#f8cecc;strokeColor=#b85450;fontFamily=Times New Roman;" vertex="1" parent="EfcbHoqVgBAvjW8AKtv0-24">
          <mxGeometry x="394.5" y="61" width="290" height="90" as="geometry" />
        </mxCell>
        <mxCell id="EfcbHoqVgBAvjW8AKtv0-103" value="&lt;font color=&quot;#131300&quot;&gt;&lt;span style=&quot;font-size: 16px; text-wrap: nowrap;&quot;&gt;&lt;b&gt;read_input_file_CAXE&lt;/b&gt;&lt;/span&gt;&lt;/font&gt;" style="swimlane;fontStyle=0;childLayout=stackLayout;horizontal=1;startSize=30;horizontalStack=0;resizeParent=1;resizeParentMax=0;resizeLast=0;collapsible=1;marginBottom=0;whiteSpace=wrap;html=1;fillColor=#f8cecc;strokeColor=#b85450;fontFamily=Times New Roman;" vertex="1" parent="EfcbHoqVgBAvjW8AKtv0-24">
          <mxGeometry x="394.5" y="461" width="290" height="30" as="geometry" />
        </mxCell>
        <mxCell id="EfcbHoqVgBAvjW8AKtv0-75" value="&lt;font color=&quot;#131300&quot;&gt;&lt;span style=&quot;font-size: 16px; text-wrap: nowrap;&quot;&gt;&lt;b&gt;write_input_file_BALM&lt;/b&gt;&lt;/span&gt;&lt;/font&gt;" style="swimlane;fontStyle=0;childLayout=stackLayout;horizontal=1;startSize=30;horizontalStack=0;resizeParent=1;resizeParentMax=0;resizeLast=0;collapsible=1;marginBottom=0;whiteSpace=wrap;html=1;fillColor=#ffe6cc;strokeColor=#d79b00;fontFamily=Times New Roman;" vertex="1" parent="EfcbHoqVgBAvjW8AKtv0-24">
          <mxGeometry x="396" y="511" width="293" height="130" as="geometry" />
        </mxCell>
        <mxCell id="EfcbHoqVgBAvjW8AKtv0-76" value="&lt;div style=&quot;font-size: 14px;&quot;&gt;&lt;div style=&quot;font-size: 14px;&quot;&gt;input : fname,BALM_input&lt;/div&gt;&lt;/div&gt;&lt;div style=&quot;font-size: 14px;&quot;&gt;&lt;/div&gt;&lt;div style=&quot;font-size: 14px;&quot;&gt;&lt;/div&gt;" style="text;strokeColor=default;fillColor=none;align=left;verticalAlign=middle;spacingLeft=4;spacingRight=4;overflow=hidden;points=[[0,0.5],[1,0.5]];portConstraint=eastwest;rotatable=0;whiteSpace=wrap;html=1;fontFamily=Times New Roman;fontSize=14;" vertex="1" parent="EfcbHoqVgBAvjW8AKtv0-75">
          <mxGeometry y="30" width="293" height="30" as="geometry" />
        </mxCell>
        <mxCell id="EfcbHoqVgBAvjW8AKtv0-77" value="&lt;div style=&quot;&quot;&gt;&lt;font style=&quot;font-size: 14px;&quot; color=&quot;#131300&quot;&gt;&lt;span style=&quot;caret-color: rgb(19, 19, 0); text-wrap: nowrap; font-size: 14px;&quot;&gt;output :&amp;nbsp;&lt;/span&gt;&lt;/font&gt;&lt;span style=&quot;background-color: initial; caret-color: rgb(19, 19, 0); text-wrap: nowrap;&quot;&gt;&lt;font color=&quot;#131300&quot;&gt;status&lt;/font&gt;&lt;/span&gt;&lt;/div&gt;" style="text;strokeColor=default;fillColor=none;align=left;verticalAlign=middle;spacingLeft=4;spacingRight=4;overflow=hidden;points=[[0,0.5],[1,0.5]];portConstraint=eastwest;rotatable=0;whiteSpace=wrap;html=1;fontFamily=Times New Roman;fontSize=14;" vertex="1" parent="EfcbHoqVgBAvjW8AKtv0-75">
          <mxGeometry y="60" width="293" height="30" as="geometry" />
        </mxCell>
        <mxCell id="EfcbHoqVgBAvjW8AKtv0-78" value="&lt;div style=&quot;font-size: 14px;&quot;&gt;function: Writes an input file for the BALM code with contents specified in a structure&lt;/div&gt;" style="text;strokeColor=default;fillColor=none;align=left;verticalAlign=middle;spacingLeft=4;spacingRight=4;overflow=hidden;points=[[0,0.5],[1,0.5]];portConstraint=eastwest;rotatable=0;whiteSpace=wrap;html=1;fontFamily=Times New Roman;fontSize=14;" vertex="1" parent="EfcbHoqVgBAvjW8AKtv0-75">
          <mxGeometry y="90" width="293" height="40" as="geometry" />
        </mxCell>
        <mxCell id="EfcbHoqVgBAvjW8AKtv0-79" value="&lt;font color=&quot;#131300&quot;&gt;&lt;span style=&quot;font-size: 16px; text-wrap: nowrap;&quot;&gt;&lt;b&gt;read_output_file_BALM&lt;/b&gt;&lt;/span&gt;&lt;/font&gt;" style="swimlane;fontStyle=0;childLayout=stackLayout;horizontal=1;startSize=30;horizontalStack=0;resizeParent=1;resizeParentMax=0;resizeLast=0;collapsible=1;marginBottom=0;whiteSpace=wrap;html=1;fillColor=#fad9d5;strokeColor=#ae4132;fontFamily=Times New Roman;" vertex="1" parent="EfcbHoqVgBAvjW8AKtv0-24">
          <mxGeometry x="394.5" y="730.89" width="290" height="130" as="geometry" />
        </mxCell>
        <mxCell id="EfcbHoqVgBAvjW8AKtv0-80" value="&lt;div style=&quot;font-size: 14px;&quot;&gt;&lt;div style=&quot;font-size: 14px;&quot;&gt;input : path_dir,input&lt;/div&gt;&lt;/div&gt;&lt;div style=&quot;font-size: 14px;&quot;&gt;&lt;/div&gt;&lt;div style=&quot;font-size: 14px;&quot;&gt;&lt;/div&gt;" style="text;strokeColor=default;fillColor=none;align=left;verticalAlign=middle;spacingLeft=4;spacingRight=4;overflow=hidden;points=[[0,0.5],[1,0.5]];portConstraint=eastwest;rotatable=0;whiteSpace=wrap;html=1;fontFamily=Times New Roman;fontSize=14;" vertex="1" parent="EfcbHoqVgBAvjW8AKtv0-79">
          <mxGeometry y="30" width="290" height="30" as="geometry" />
        </mxCell>
        <mxCell id="EfcbHoqVgBAvjW8AKtv0-81" value="&lt;div style=&quot;&quot;&gt;&lt;font style=&quot;font-size: 14px;&quot; color=&quot;#131300&quot;&gt;&lt;span style=&quot;caret-color: rgb(19, 19, 0); text-wrap: nowrap; font-size: 14px;&quot;&gt;output :&amp;nbsp;&lt;/span&gt;&lt;/font&gt;&lt;span style=&quot;background-color: initial; caret-color: rgb(19, 19, 0); text-wrap: nowrap;&quot;&gt;&lt;font color=&quot;#131300&quot;&gt;output&lt;/font&gt;&lt;/span&gt;&lt;/div&gt;" style="text;strokeColor=default;fillColor=none;align=left;verticalAlign=middle;spacingLeft=4;spacingRight=4;overflow=hidden;points=[[0,0.5],[1,0.5]];portConstraint=eastwest;rotatable=0;whiteSpace=wrap;html=1;fontFamily=Times New Roman;fontSize=14;" vertex="1" parent="EfcbHoqVgBAvjW8AKtv0-79">
          <mxGeometry y="60" width="290" height="30" as="geometry" />
        </mxCell>
        <mxCell id="EfcbHoqVgBAvjW8AKtv0-82" value="&lt;div style=&quot;&quot;&gt;function:&amp;nbsp;&lt;span style=&quot;background-color: initial;&quot;&gt;Import data from BALM output files&lt;/span&gt;&lt;/div&gt;" style="text;strokeColor=default;fillColor=none;align=left;verticalAlign=middle;spacingLeft=4;spacingRight=4;overflow=hidden;points=[[0,0.5],[1,0.5]];portConstraint=eastwest;rotatable=0;whiteSpace=wrap;html=1;fontFamily=Times New Roman;fontSize=14;" vertex="1" parent="EfcbHoqVgBAvjW8AKtv0-79">
          <mxGeometry y="90" width="290" height="40" as="geometry" />
        </mxCell>
        <mxCell id="EfcbHoqVgBAvjW8AKtv0-83" value="&lt;font color=&quot;#131300&quot;&gt;&lt;span style=&quot;font-size: 16px; text-wrap: nowrap;&quot;&gt;&lt;b&gt;write_input_file_CAXE&lt;/b&gt;&lt;/span&gt;&lt;/font&gt;" style="swimlane;fontStyle=0;childLayout=stackLayout;horizontal=1;startSize=30;horizontalStack=0;resizeParent=1;resizeParentMax=0;resizeLast=0;collapsible=1;marginBottom=0;whiteSpace=wrap;html=1;fillColor=#f8cecc;strokeColor=#b85450;fontFamily=Times New Roman;" vertex="1" parent="EfcbHoqVgBAvjW8AKtv0-24">
          <mxGeometry x="393" y="901" width="293" height="29" as="geometry" />
        </mxCell>
        <mxCell id="EfcbHoqVgBAvjW8AKtv0-87" value="&lt;font color=&quot;#131300&quot;&gt;&lt;span style=&quot;font-size: 16px; text-wrap: nowrap;&quot;&gt;&lt;b&gt;run_cmd_batch&lt;/b&gt;&lt;/span&gt;&lt;/font&gt;" style="swimlane;fontStyle=0;childLayout=stackLayout;horizontal=1;startSize=30;horizontalStack=0;resizeParent=1;resizeParentMax=0;resizeLast=0;collapsible=1;marginBottom=0;whiteSpace=wrap;html=1;fillColor=#ffe6cc;strokeColor=#d79b00;fontFamily=Times New Roman;" vertex="1" parent="EfcbHoqVgBAvjW8AKtv0-24">
          <mxGeometry x="394.5" y="960.0000000000001" width="293" height="130" as="geometry" />
        </mxCell>
        <mxCell id="EfcbHoqVgBAvjW8AKtv0-88" value="&lt;div style=&quot;font-size: 14px;&quot;&gt;&lt;div style=&quot;font-size: 14px;&quot;&gt;input : cmd,input,aux,batch,affinity&lt;/div&gt;&lt;/div&gt;&lt;div style=&quot;font-size: 14px;&quot;&gt;&lt;/div&gt;&lt;div style=&quot;font-size: 14px;&quot;&gt;&lt;/div&gt;" style="text;strokeColor=default;fillColor=none;align=left;verticalAlign=middle;spacingLeft=4;spacingRight=4;overflow=hidden;points=[[0,0.5],[1,0.5]];portConstraint=eastwest;rotatable=0;whiteSpace=wrap;html=1;fontFamily=Times New Roman;fontSize=14;" vertex="1" parent="EfcbHoqVgBAvjW8AKtv0-87">
          <mxGeometry y="30" width="293" height="30" as="geometry" />
        </mxCell>
        <mxCell id="EfcbHoqVgBAvjW8AKtv0-89" value="&lt;div style=&quot;&quot;&gt;&lt;font style=&quot;font-size: 14px;&quot; color=&quot;#131300&quot;&gt;&lt;span style=&quot;caret-color: rgb(19, 19, 0); text-wrap: nowrap; font-size: 14px;&quot;&gt;output :&amp;nbsp;&lt;/span&gt;&lt;/font&gt;&lt;span style=&quot;background-color: initial; caret-color: rgb(19, 19, 0); text-wrap: nowrap;&quot;&gt;&lt;font color=&quot;#131300&quot;&gt;[tmpdir,pid_all]&lt;/font&gt;&lt;/span&gt;&lt;/div&gt;" style="text;strokeColor=default;fillColor=none;align=left;verticalAlign=middle;spacingLeft=4;spacingRight=4;overflow=hidden;points=[[0,0.5],[1,0.5]];portConstraint=eastwest;rotatable=0;whiteSpace=wrap;html=1;fontFamily=Times New Roman;fontSize=14;" vertex="1" parent="EfcbHoqVgBAvjW8AKtv0-87">
          <mxGeometry y="60" width="293" height="30" as="geometry" />
        </mxCell>
        <mxCell id="EfcbHoqVgBAvjW8AKtv0-90" value="&lt;div style=&quot;font-size: 14px;&quot;&gt;function: Runs command in batch mode&lt;/div&gt;" style="text;strokeColor=default;fillColor=none;align=left;verticalAlign=middle;spacingLeft=4;spacingRight=4;overflow=hidden;points=[[0,0.5],[1,0.5]];portConstraint=eastwest;rotatable=0;whiteSpace=wrap;html=1;fontFamily=Times New Roman;fontSize=14;" vertex="1" parent="EfcbHoqVgBAvjW8AKtv0-87">
          <mxGeometry y="90" width="293" height="40" as="geometry" />
        </mxCell>
        <mxCell id="EfcbHoqVgBAvjW8AKtv0-92" value="" style="endArrow=none;html=1;rounded=0;strokeWidth=11;" edge="1" parent="EfcbHoqVgBAvjW8AKtv0-24">
          <mxGeometry width="50" height="50" relative="1" as="geometry">
            <mxPoint x="392.5" y="881.0000000000001" as="sourcePoint" />
            <mxPoint x="809" y="881" as="targetPoint" />
          </mxGeometry>
        </mxCell>
        <mxCell id="EfcbHoqVgBAvjW8AKtv0-107" value="&lt;font color=&quot;#131300&quot;&gt;&lt;span style=&quot;font-size: 16px; text-wrap: nowrap;&quot;&gt;&lt;b&gt;unix run BALM&lt;/b&gt;&lt;/span&gt;&lt;/font&gt;" style="swimlane;fontStyle=0;childLayout=stackLayout;horizontal=1;startSize=30;horizontalStack=0;resizeParent=1;resizeParentMax=0;resizeLast=0;collapsible=1;marginBottom=0;whiteSpace=wrap;html=1;fontFamily=Times New Roman;" vertex="1" parent="EfcbHoqVgBAvjW8AKtv0-24">
          <mxGeometry x="396" y="661" width="290" height="30" as="geometry" />
        </mxCell>
        <mxCell id="EfcbHoqVgBAvjW8AKtv0-109" value="&lt;font color=&quot;#131300&quot;&gt;&lt;span style=&quot;font-size: 16px; text-wrap: nowrap;&quot;&gt;&lt;b&gt;write_input_file_BALM&lt;/b&gt;&lt;/span&gt;&lt;/font&gt;" style="swimlane;fontStyle=0;childLayout=stackLayout;horizontal=1;startSize=30;horizontalStack=0;resizeParent=1;resizeParentMax=0;resizeLast=0;collapsible=1;marginBottom=0;whiteSpace=wrap;html=1;fillColor=#fad9d5;strokeColor=#ae4132;fontFamily=Times New Roman;" vertex="1" parent="EfcbHoqVgBAvjW8AKtv0-24">
          <mxGeometry x="394.5" y="1151.11" width="293" height="30" as="geometry" />
        </mxCell>
        <mxCell id="EfcbHoqVgBAvjW8AKtv0-113" value="&lt;font color=&quot;#131300&quot;&gt;&lt;span style=&quot;font-size: 16px; text-wrap: nowrap;&quot;&gt;&lt;b&gt;run_cmd_batch&lt;/b&gt;&lt;/span&gt;&lt;/font&gt;" style="swimlane;fontStyle=0;childLayout=stackLayout;horizontal=1;startSize=30;horizontalStack=0;resizeParent=1;resizeParentMax=0;resizeLast=0;collapsible=1;marginBottom=0;whiteSpace=wrap;html=1;fillColor=#fad9d5;strokeColor=#ae4132;fontFamily=Times New Roman;" vertex="1" parent="EfcbHoqVgBAvjW8AKtv0-24">
          <mxGeometry x="396" y="1211.11" width="293" height="30" as="geometry" />
        </mxCell>
        <mxCell id="EfcbHoqVgBAvjW8AKtv0-117" value="&lt;font color=&quot;#131300&quot;&gt;&lt;span style=&quot;font-size: 16px; text-wrap: nowrap;&quot;&gt;&lt;b&gt;read_output_file_BALM&lt;/b&gt;&lt;/span&gt;&lt;/font&gt;" style="swimlane;fontStyle=0;childLayout=stackLayout;horizontal=1;startSize=30;horizontalStack=0;resizeParent=1;resizeParentMax=0;resizeLast=0;collapsible=1;marginBottom=0;whiteSpace=wrap;html=1;fillColor=#fad9d5;strokeColor=#ae4132;fontFamily=Times New Roman;" vertex="1" parent="EfcbHoqVgBAvjW8AKtv0-24">
          <mxGeometry x="396" y="1271.11" width="293" height="30" as="geometry" />
        </mxCell>
        <mxCell id="EfcbHoqVgBAvjW8AKtv0-125" value="" style="html=1;shadow=0;dashed=0;align=center;verticalAlign=middle;shape=mxgraph.arrows2.arrow;dy=0.6;dx=40;direction=south;notch=0;fillColor=#FFFF00;" vertex="1" parent="EfcbHoqVgBAvjW8AKtv0-24">
          <mxGeometry x="35" y="59" width="20" height="650" as="geometry" />
        </mxCell>
        <mxCell id="EfcbHoqVgBAvjW8AKtv0-126" value="" style="html=1;shadow=0;dashed=0;align=center;verticalAlign=middle;shape=mxgraph.arrows2.arrow;dy=0.6;dx=40;direction=south;notch=0;fillColor=#00FF00;strokeColor=#B20000;fontColor=#ffffff;" vertex="1" parent="EfcbHoqVgBAvjW8AKtv0-24">
          <mxGeometry x="357" y="60" width="20" height="1270" as="geometry" />
        </mxCell>
        <mxCell id="EfcbHoqVgBAvjW8AKtv0-130" value="" style="endArrow=none;html=1;rounded=0;strokeWidth=11;" edge="1" parent="EfcbHoqVgBAvjW8AKtv0-24">
          <mxGeometry width="50" height="50" relative="1" as="geometry">
            <mxPoint x="393" y="1130.11" as="sourcePoint" />
            <mxPoint x="809.5" y="1130.11" as="targetPoint" />
          </mxGeometry>
        </mxCell>
        <mxCell id="EfcbHoqVgBAvjW8AKtv0-131" value="" style="endArrow=none;html=1;rounded=0;strokeWidth=11;" edge="1" parent="EfcbHoqVgBAvjW8AKtv0-24">
          <mxGeometry width="50" height="50" relative="1" as="geometry">
            <mxPoint x="399" y="1330.11" as="sourcePoint" />
            <mxPoint x="815.5" y="1330.11" as="targetPoint" />
          </mxGeometry>
        </mxCell>
        <mxCell id="EfcbHoqVgBAvjW8AKtv0-132" value="" style="endArrow=none;html=1;rounded=0;strokeWidth=11;" edge="1" parent="EfcbHoqVgBAvjW8AKtv0-24">
          <mxGeometry width="50" height="50" relative="1" as="geometry">
            <mxPoint x="387" y="50" as="sourcePoint" />
            <mxPoint x="803.5" y="50" as="targetPoint" />
          </mxGeometry>
        </mxCell>
        <mxCell id="EfcbHoqVgBAvjW8AKtv0-134" value="&lt;b&gt;&lt;font color=&quot;#ff0000&quot; style=&quot;font-size: 22px;&quot;&gt;Experimental BALM&lt;/font&gt;&lt;/b&gt;" style="ellipse;whiteSpace=wrap;html=1;strokeColor=#000000;strokeWidth=4;" vertex="1" parent="EfcbHoqVgBAvjW8AKtv0-24">
          <mxGeometry x="704" y="561" width="160" height="230" as="geometry" />
        </mxCell>
        <mxCell id="EfcbHoqVgBAvjW8AKtv0-135" value="&lt;b&gt;&lt;font color=&quot;#ff0000&quot; style=&quot;font-size: 22px;&quot;&gt;Mesh CAXE&lt;/font&gt;&lt;/b&gt;" style="ellipse;whiteSpace=wrap;html=1;strokeColor=#000000;strokeWidth=4;" vertex="1" parent="EfcbHoqVgBAvjW8AKtv0-24">
          <mxGeometry x="704" y="970.0000000000001" width="160" height="110" as="geometry" />
        </mxCell>
        <mxCell id="EfcbHoqVgBAvjW8AKtv0-137" value="&lt;b&gt;&lt;font color=&quot;#ff0000&quot; style=&quot;font-size: 22px;&quot;&gt;Mesh BALM&lt;/font&gt;&lt;/b&gt;" style="ellipse;whiteSpace=wrap;html=1;strokeColor=#000000;strokeWidth=4;" vertex="1" parent="EfcbHoqVgBAvjW8AKtv0-24">
          <mxGeometry x="704" y="1181.11" width="160" height="110" as="geometry" />
        </mxCell>
        <mxCell id="EfcbHoqVgBAvjW8AKtv0-145" value="" style="edgeStyle=orthogonalEdgeStyle;rounded=0;orthogonalLoop=1;jettySize=auto;html=1;" edge="1" parent="EfcbHoqVgBAvjW8AKtv0-24" source="EfcbHoqVgBAvjW8AKtv0-76">
          <mxGeometry relative="1" as="geometry">
            <mxPoint x="327.5" y="580" as="targetPoint" />
          </mxGeometry>
        </mxCell>
      </root>
    </mxGraphModel>
  </diagram>
</mxfile>
